<svg version="1.1" id="Layer_1" xmlns="http://www.w3.org/2000/svg" xmlns:xlink="http://www.w3.org/1999/xlink" x="0px" y="0px"
	 width="100%" viewBox="0 0 889 462" enable-background="new 0 0 889 462" xml:space="preserve">
<path fill="#FFFFFF" opacity="1.000000" stroke="none" 
	d="
M1.000001,265.000000 
	C1.000000,180.642593 1.000000,96.285179 1.388956,11.472151 
	C2.712563,11.282440 3.681120,11.464685 4.576476,11.827550 
	C11.447274,14.612116 22.448706,8.493693 24.000000,1.000000 
	C312.578796,1.000000 601.157593,1.000000 889.868164,1.000000 
	C889.868164,154.999924 889.868164,308.999939 889.868164,463.000000 
	C864.578857,463.000000 839.253296,463.000000 813.429199,462.649902 
	C808.546143,455.940887 804.205933,449.550476 799.727844,443.258118 
	C799.079041,442.346405 797.376404,441.133728 796.846069,441.403992 
	C795.685791,441.995148 794.704712,443.334015 794.149170,444.588379 
	C793.719055,445.559601 793.863281,446.899597 794.067871,448.017883 
	C794.983459,453.023224 796.012207,458.007874 797.000000,463.000000 
	C793.638123,463.000000 790.276306,463.000000 786.421021,462.647583 
	C783.744446,460.746185 781.705933,458.892822 779.324585,457.760712 
	C777.861267,457.065033 775.094788,456.733398 774.308350,457.562164 
	C773.196594,458.733582 773.373779,461.128235 773.000000,463.000000 
	C515.782532,463.000000 258.565002,463.000000 1.000000,463.000000 
	C1.000000,403.643036 1.000000,344.285400 1.340124,284.498657 
	C2.927731,284.969543 4.175214,285.869537 5.393449,286.748444 
	C8.521891,283.335785 6.292996,277.725067 1.000000,275.000000 
	C1.000000,273.933319 1.000000,272.866608 1.371432,271.402130 
	C4.924882,272.718262 8.047734,274.557495 11.311518,276.098206 
	C13.214641,276.996613 15.343298,277.417297 17.370489,278.052887 
	C17.705687,275.591858 18.517986,273.081848 18.271439,270.680542 
	C17.830950,266.390289 16.751738,262.165558 15.939564,257.913452 
	C18.008413,258.691010 19.105543,259.855194 20.045135,261.135040 
	C21.908827,263.673615 23.572250,266.368622 25.559895,268.801727 
	C26.255035,269.652649 27.660091,269.923645 28.740963,270.459473 
	C28.907833,269.144196 29.475319,267.715210 29.142332,266.541779 
	C28.705084,265.000916 27.633945,263.609863 26.703001,262.244690 
	C23.628304,257.735779 20.620977,253.170624 17.313282,248.836563 
	C16.166153,247.333466 14.217555,246.442047 12.635027,245.271240 
	C11.758541,247.249146 10.372080,249.171661 10.149484,251.220612 
	C9.928414,253.255478 10.919804,255.409958 11.306238,257.525360 
	C12.196326,262.397858 13.041968,267.278442 14.065030,273.055817 
	C9.070544,269.976257 5.035273,267.488129 1.000001,265.000000 
M572.628967,375.258820 
	C577.168579,379.460724 581.707214,384.281860 588.636536,380.802277 
	C591.726685,379.250610 594.186401,376.443268 597.009216,374.143097 
	C598.717102,375.931152 598.694824,378.477142 595.917358,380.546692 
	C593.741394,382.168030 591.076416,383.127899 588.873047,384.719879 
	C587.741638,385.537323 587.144714,387.094635 586.306274,388.317596 
	C587.754822,388.833832 589.361328,390.016266 590.616821,389.718445 
	C592.790833,389.202759 594.842346,387.920074 596.778320,386.695343 
	C604.446411,381.844391 606.083679,374.909790 599.898682,367.238464 
	C595.723816,362.060425 592.629578,356.011261 589.863953,350.197845 
	C591.233582,350.264465 592.603271,350.331085 593.968384,351.176819 
	C593.580017,357.151428 597.343506,360.919159 601.714844,363.563324 
	C606.087891,366.208588 610.776550,365.218506 615.335083,362.515167 
	C620.148926,359.660400 620.937744,355.053619 622.943420,350.201111 
	C659.833679,350.201111 696.723877,350.201111 733.608459,350.201111 
	C733.608459,269.417114 733.608459,189.379486 733.608459,108.990891 
	C731.539673,108.990891 729.738525,108.993271 727.937439,108.990540 
	C692.295715,108.936432 656.653992,108.881729 621.004883,108.027138 
	C620.244629,96.756691 610.448486,89.115303 600.377808,92.113144 
	C595.581360,93.540970 589.081177,98.917221 589.062195,108.977135 
	C525.145142,108.977135 461.228027,108.977135 397.256470,108.977135 
	C397.256470,128.369644 397.256470,147.261276 397.256470,166.225189 
	C399.948181,166.225189 402.365082,166.225189 405.198669,166.225189 
	C405.198669,149.689697 405.198669,133.445724 405.198669,117.009567 
	C429.257416,117.009567 452.896271,116.988205 476.535065,117.014954 
	C506.352600,117.048698 536.170105,117.121696 565.870728,117.972511 
	C563.681519,125.649467 565.628296,132.258026 571.369141,136.637985 
	C577.456970,141.282684 581.971436,141.647186 588.026001,137.982971 
	C594.359619,134.149841 596.457275,126.813965 591.887390,120.150879 
	C591.092712,123.297646 590.970093,125.703812 589.902649,127.569366 
	C588.208618,130.529938 586.427856,134.182159 583.680969,135.603104 
	C580.561707,137.216660 576.853210,136.080582 574.154480,132.539429 
	C570.580872,127.850197 568.034485,123.219307 570.937439,117.031822 
	C579.620728,117.083588 588.304077,117.135345 597.086121,117.876793 
	C602.274536,124.699387 612.285522,124.331711 616.937683,117.032982 
	C653.153870,117.032982 689.370056,117.032982 725.555786,117.032982 
	C725.555786,192.380081 725.555786,267.065125 725.555786,341.946014 
	C697.865479,341.946014 670.434937,341.946014 643.138550,341.235413 
	C644.545715,339.284576 649.973877,339.672974 647.563965,335.773041 
	C643.685608,329.496582 638.876343,323.784302 634.265076,317.989075 
	C633.802612,317.407959 630.994263,317.718536 630.959106,317.915558 
	C630.180237,322.284882 626.106812,321.868530 623.366577,323.281433 
	C618.039429,326.028229 615.462219,332.473816 617.802551,337.536377 
	C618.487854,339.018921 619.261108,340.460815 619.259155,342.112274 
	C618.507812,342.050385 617.756531,341.988464 616.887756,341.239136 
	C610.096924,334.875244 602.879395,335.137634 597.075012,342.115265 
	C533.181274,342.115265 469.287506,342.115265 404.930237,342.115265 
	C404.930237,325.480469 404.930237,309.249207 404.930237,293.104858 
	C402.053558,293.104858 399.647644,293.104858 397.303650,293.104858 
	C397.303650,312.281281 397.303650,331.173096 397.303650,350.171631 
	C450.579529,350.171631 503.531891,350.164001 556.484253,350.179169 
	C565.306396,350.181702 574.128479,350.283661 582.966492,351.143494 
	C583.365845,353.776245 582.537048,354.917847 579.586121,355.194458 
	C577.496643,355.390320 575.166809,356.635223 573.597168,358.107758 
	C568.219849,363.152466 569.741394,369.088074 571.316772,374.927948 
	C570.329651,374.344299 569.312378,373.805817 568.360229,373.169800 
	C561.022827,368.268372 556.727905,368.680267 550.586121,374.903687 
	C546.095947,379.453522 545.560974,387.271057 549.372559,392.637085 
	C553.373352,398.269501 560.755127,399.527710 568.132507,395.834625 
	C572.591675,393.602417 575.330444,385.590912 573.534607,380.133301 
	C572.973938,378.429626 572.519897,376.690887 572.628967,375.258820 
M458.857910,225.002975 
	C466.416382,224.983307 471.340393,221.550232 472.993683,215.147446 
	C475.090881,207.025146 470.329956,197.608841 462.144043,195.474304 
	C459.101746,194.681000 454.715149,192.694214 451.153687,197.358490 
	C448.725739,197.358490 446.297791,197.358490 443.065826,197.358490 
	C443.065826,210.355103 443.065826,222.680618 442.327759,235.070633 
	C438.033630,238.529388 435.035706,235.436859 431.516907,232.413651 
	C429.298218,223.884369 423.149597,219.033463 415.518066,215.831650 
	C407.875519,212.625229 399.990601,209.991516 392.378937,206.718460 
	C388.282104,204.956802 385.919128,201.516327 386.324097,196.759521 
	C386.760986,191.628265 389.888733,188.620438 394.549774,187.199814 
	C406.532776,183.547485 414.754700,188.131851 417.885101,200.276016 
	C422.417511,200.276016 427.019440,200.276016 432.044250,200.276016 
	C431.866730,190.665192 427.571716,183.612427 419.524139,178.993561 
	C409.149780,173.039261 398.118256,173.314102 387.227356,177.174179 
	C379.148071,180.037750 373.205536,185.302826 371.906982,194.499817 
	C370.533569,204.227005 374.437103,211.602478 382.532806,216.381760 
	C387.904327,219.552872 394.016174,221.473740 399.807098,223.929520 
	C404.069763,225.737213 408.561768,227.130142 412.561371,229.396576 
	C416.509613,231.633942 417.839417,235.624725 417.236542,240.175095 
	C416.639587,244.680634 413.785217,247.190552 409.782410,248.658722 
	C397.262909,253.250748 387.357452,248.204041 383.043915,235.063507 
	C378.438629,235.063507 373.833344,235.063507 368.837311,235.063507 
	C369.130219,237.126892 369.221893,238.933395 369.657410,240.652786 
	C372.498993,251.870453 382.350342,259.819489 396.318817,261.123749 
	C413.034790,262.684570 427.667755,258.418884 432.777618,243.076065 
	C436.130524,242.388123 439.483398,241.700195 442.962952,241.818985 
	C445.500549,261.786774 465.697906,267.463013 481.689240,255.188232 
	C481.975861,256.930908 482.251221,258.605103 482.504395,260.144440 
	C487.083038,260.144440 491.308990,260.144440 495.987122,260.144440 
	C495.987122,240.169708 495.987122,220.583725 496.723663,200.974213 
	C504.779846,195.950180 503.422821,192.235947 494.805359,183.180679 
	C491.991089,185.083069 489.089020,186.938293 486.334259,188.991135 
	C485.737640,189.435730 485.185608,191.039703 485.454163,191.329163 
	C486.123566,192.050537 487.269318,192.653976 488.238617,192.676758 
	C489.110504,192.697235 490.098846,192.008240 490.868164,191.414795 
	C494.171967,188.866302 495.264374,191.224106 495.928741,193.810669 
	C496.284698,195.196564 495.940491,196.762268 495.151917,197.794312 
	C490.508270,198.165970 485.864594,198.537628 480.571198,198.955856 
	C475.468628,196.144012 473.216248,190.462036 475.276245,185.598663 
	C476.825378,181.941360 481.776520,180.275772 486.888763,181.229172 
	C488.055817,181.446808 489.507263,180.139694 490.827820,179.534332 
	C490.012177,178.467056 489.131348,176.441711 488.391785,176.492035 
	C484.370636,176.765610 480.013184,176.733185 476.468445,178.341873 
	C470.333954,181.125870 468.981293,187.164093 470.190216,193.159378 
	C471.401428,199.166199 475.008514,203.885666 481.401459,206.943924 
	C481.418335,217.885620 481.484528,228.827560 481.432129,239.768936 
	C481.404480,245.535934 476.614410,249.577133 469.653809,249.921875 
	C462.354767,250.283386 458.379517,247.418869 457.974030,240.878235 
	C457.647186,235.606430 457.969116,230.294403 458.857910,225.002975 
M585.041321,246.492310 
	C585.041321,251.073196 585.041321,255.654083 585.041321,260.179047 
	C590.120239,260.179047 594.517334,260.179047 599.015259,260.179047 
	C599.015259,244.854034 599.432068,229.863861 598.886963,214.908752 
	C598.428223,202.324234 589.171631,195.126495 576.658752,196.287354 
	C569.575806,196.944473 563.862305,200.052505 559.349976,205.491043 
	C550.394714,193.971008 538.487366,193.140350 524.056702,202.803223 
	C523.662354,201.056549 523.270874,199.322906 522.914124,197.743042 
	C518.473022,197.743042 514.362732,197.743042 510.287933,197.743042 
	C510.287933,218.742188 510.287933,239.466919 510.287933,260.216919 
	C515.013489,260.216919 519.426941,260.216919 524.102783,260.216919 
	C524.102783,246.264969 524.096863,232.619919 524.105347,218.974869 
	C524.109619,212.121567 528.008179,208.279770 535.264648,207.942200 
	C543.000366,207.582336 546.946655,210.471176 547.253540,217.902740 
	C547.706543,228.875366 547.498840,239.875412 547.562927,250.863846 
	C547.581055,253.970093 547.565735,257.076538 547.565735,260.221985 
	C552.615295,260.221985 557.033691,260.221985 561.757019,260.221985 
	C561.757019,246.622986 561.715271,233.327347 561.773682,220.032166 
	C561.805359,212.818344 566.811951,207.975067 574.097778,207.906754 
	C581.582336,207.836563 584.928162,211.315430 585.010925,219.513321 
	C585.098328,228.172958 585.037415,236.834091 585.041321,246.492310 
M651.208679,251.427261 
	C651.208679,254.346817 651.208679,257.266357 651.208679,260.165649 
	C656.323181,260.165649 660.713196,260.165649 665.242737,260.165649 
	C665.306030,258.995605 665.388794,258.181458 665.388367,257.367371 
	C665.382080,245.035355 665.313110,232.703110 665.369507,220.371414 
	C665.403503,212.939407 670.546631,207.952744 677.992249,207.905197 
	C685.373596,207.858063 688.674194,211.400070 688.895996,219.633102 
	C688.936401,221.131943 688.910828,222.632629 688.910950,224.132462 
	C688.911743,236.103546 688.911377,248.074631 688.911377,260.284119 
	C693.708191,260.284119 698.135742,260.284119 702.757141,260.284119 
	C702.757141,244.815231 703.536377,229.481186 702.520325,214.267029 
	C701.645630,201.168976 692.558594,194.975113 679.727173,196.390640 
	C672.941772,197.139175 667.524170,200.229599 662.942322,205.678452 
	C659.046448,199.054153 653.143433,195.713257 646.232666,196.450333 
	C639.792297,197.137222 633.558044,199.757751 627.330444,201.499832 
	C627.249451,200.912399 627.027100,199.300125 626.808044,197.711441 
	C622.478699,197.711441 618.359802,197.711441 614.123718,197.711441 
	C614.123718,218.683121 614.123718,239.411835 614.123718,260.223206 
	C618.844238,260.223206 623.269714,260.223206 627.955444,260.223206 
	C627.955444,245.934830 627.866638,231.946365 628.049927,217.961441 
	C628.077820,215.833939 628.842957,213.283340 630.177429,211.691757 
	C633.399780,207.848541 640.480835,206.815674 645.454102,208.827667 
	C650.318909,210.795792 651.157288,214.927353 651.176270,219.452972 
	C651.219666,229.784897 651.201721,240.117096 651.208679,251.427261 
M145.063904,245.349487 
	C133.288589,255.168091 116.540573,249.803879 113.403526,235.100601 
	C108.679390,235.100601 103.933502,235.100601 99.013161,235.100601 
	C99.273972,243.827164 102.954514,250.368698 109.865517,255.064438 
	C121.391174,262.895660 133.919693,263.017334 146.659195,259.090424 
	C154.598846,256.643066 160.518097,251.447861 161.858231,242.881378 
	C163.351456,233.336502 160.922729,224.795761 152.084000,219.585587 
	C146.988800,216.582092 141.367264,214.451309 135.919617,212.071976 
	C131.072449,209.954926 126.003525,208.305878 121.287453,205.941650 
	C117.792465,204.189590 116.091156,200.871628 116.458809,196.813004 
	C116.833832,192.673187 118.874916,189.735062 122.744850,187.961426 
	C134.114319,182.750580 144.830185,187.699448 147.685913,199.552185 
	C147.753403,199.832291 148.096848,200.045914 148.358002,200.343445 
	C152.780228,200.343445 157.241150,200.343445 161.682434,200.343445 
	C162.220016,195.047211 160.682648,190.391373 157.432678,185.836212 
	C146.675812,170.759384 119.809425,172.200516 108.734207,182.117722 
	C99.169456,190.682404 98.934303,205.608688 109.168861,213.578644 
	C114.411263,217.661057 120.969955,220.133667 127.105789,222.960403 
	C131.303757,224.894394 135.958649,225.848358 140.125671,227.835205 
	C147.534851,231.367935 149.267319,237.238144 145.063904,245.349487 
M304.756409,242.499451 
	C304.756409,256.559723 304.756409,270.619995 304.756409,284.456879 
	C309.936279,284.456879 314.336884,284.456879 318.905762,284.456879 
	C318.905762,279.399597 318.905762,274.740387 318.905762,270.081146 
	C318.905762,265.361633 318.905762,260.642120 318.905762,255.405670 
	C333.078827,266.512207 352.012756,261.946899 357.583466,244.303238 
	C361.243530,232.711029 361.021118,220.964218 356.076324,209.644867 
	C351.927551,200.147614 342.353149,194.748337 332.134430,196.725861 
	C327.283569,197.664597 322.733795,200.158951 318.167877,201.902649 
	C318.030579,200.934921 317.805603,199.349075 317.583588,197.784119 
	C313.216461,197.784119 309.141907,197.784119 304.756531,197.784119 
	C304.756531,212.563660 304.756531,227.031540 304.756409,242.499451 
M240.079010,233.827011 
	C236.503494,243.887451 238.257141,251.422501 245.512314,257.172943 
	C253.481522,263.489349 264.550140,262.832642 275.548187,255.589874 
	C276.906281,257.251160 278.045135,260.021393 279.606567,260.284576 
	C283.588684,260.955811 287.759430,260.508118 291.059753,260.508118 
	C290.672546,251.698532 290.216431,243.471909 289.981140,235.238953 
	C289.814575,229.411972 290.045471,223.574371 289.924011,217.745163 
	C289.705200,207.241241 285.067383,201.078369 275.105133,197.719193 
	C266.923401,194.960434 258.887177,196.074020 251.274231,199.394531 
	C243.513428,202.779556 239.555542,209.128128 240.393127,215.515610 
	C243.675903,215.515610 246.997238,215.532166 250.318222,215.505447 
	C251.306381,215.497498 252.293564,215.368057 253.215546,215.299179 
	C256.030670,208.549896 261.244354,205.760269 267.884216,207.346375 
	C273.685822,208.732239 276.083405,213.140778 275.565704,222.088928 
	C271.304321,222.088928 266.980072,221.809799 262.704529,222.147217 
	C253.879684,222.843658 245.549332,224.808502 240.079010,233.827011 
M224.720993,210.019577 
	C219.068558,194.287216 205.896286,191.858307 187.526077,203.379562 
	C187.249985,201.394150 186.990723,199.529755 186.740906,197.733322 
	C182.333069,197.733322 178.242279,197.733322 174.028534,197.733322 
	C174.028534,218.726883 174.028534,239.447311 174.028534,260.248230 
	C178.715759,260.248230 183.136169,260.248230 187.919250,260.248230 
	C187.919250,246.352142 187.881729,232.734756 187.965820,219.118134 
	C187.976562,217.376511 188.207748,215.401154 189.046951,213.942703 
	C191.849243,209.072647 198.384369,206.757767 204.348389,208.176697 
	C209.041519,209.293259 211.408005,212.679642 211.631210,219.272552 
	C211.828217,225.090790 211.700653,230.920212 211.705261,236.744705 
	C211.711411,244.526947 211.706772,252.309204 211.706772,260.280701 
	C216.604828,260.280701 221.015518,260.280701 224.889191,260.280701 
	C224.889191,243.623322 224.889191,227.223083 224.720993,210.019577 
M225.754639,106.540733 
	C225.424973,107.479851 225.060196,108.408318 224.771454,109.359856 
	C223.163467,114.658745 225.152206,120.729652 229.548050,123.998840 
	C234.582733,127.743126 240.593689,128.370087 245.120407,124.791130 
	C247.716965,122.738205 250.251770,119.835434 251.287338,116.795120 
	C252.340942,113.701866 251.520187,109.970192 251.520187,106.371063 
	C259.836212,113.610184 267.632874,112.376694 273.769287,102.306595 
	C276.166290,105.723755 276.176331,107.783150 273.462463,109.865303 
	C271.560333,111.324669 268.989807,111.889549 266.988525,113.251694 
	C265.783691,114.071777 265.098053,115.654655 264.179077,116.894753 
	C265.344086,117.590546 266.500977,118.873024 267.675415,118.889236 
	C277.002136,119.018051 284.220306,107.763908 279.665405,99.628822 
	C276.206573,93.451263 271.792755,87.777756 267.497711,82.112099 
	C265.391602,79.333931 262.652740,76.538536 260.502686,82.473824 
	C260.209137,83.284225 258.356384,83.710548 257.150787,83.979057 
	C251.417831,85.255905 247.963394,89.389000 248.029465,95.322060 
	C248.056076,97.710968 248.435989,100.095947 248.748535,103.500381 
	C239.936462,97.221375 232.418304,97.618553 225.754639,106.540733 
M313.399567,48.001610 
	C311.283722,45.709232 309.529388,44.916138 307.912048,48.643303 
	C307.432190,49.749146 305.734070,50.682926 304.422607,51.012238 
	C297.057983,52.861500 293.488434,58.767521 295.543091,66.065620 
	C296.018982,67.755875 296.526276,69.437294 297.173737,71.651649 
	C287.084106,64.824692 282.560669,64.433846 276.184479,69.483505 
	C272.373505,72.501625 270.595642,80.216362 272.588104,85.089188 
	C274.935577,90.830177 281.736481,95.366570 287.777252,93.833115 
	C298.239349,91.177315 300.934235,83.541367 297.698761,72.756065 
	C300.101776,74.257744 301.313568,75.041351 302.550262,75.783394 
	C308.871368,79.576263 312.874481,78.981979 317.938171,73.568367 
	C319.828369,71.547577 320.590820,68.005058 324.482239,68.624329 
	C324.532440,67.097870 325.205597,65.173561 324.527710,64.112122 
	C321.149200,58.822174 317.415558,53.759060 313.399567,48.001610 
M504.207489,445.762238 
	C504.725677,443.738495 505.768463,441.687256 505.664185,439.696106 
	C505.345642,433.613770 504.703064,427.540375 503.970917,421.489563 
	C502.763947,411.513916 501.639618,401.513794 499.876953,391.631622 
	C499.512299,389.587219 496.702026,386.827209 494.677551,386.498383 
	C491.577789,385.994843 488.772675,390.629364 489.131287,393.910278 
	C490.796844,409.148315 492.498718,424.384064 493.947021,439.643433 
	C494.544006,445.932831 497.154083,447.941315 504.207489,445.762238 
M142.057022,460.464905 
	C145.764633,459.565765 146.733536,457.619537 146.236679,453.583801 
	C144.785873,441.799744 144.089798,429.924500 142.961136,418.098053 
	C142.539429,413.679443 141.812241,409.285034 141.091339,404.901459 
	C140.443588,400.962646 137.410812,399.550659 134.142426,400.302429 
	C130.628036,401.110779 129.678925,404.166779 130.091263,407.785156 
	C131.808060,422.851013 133.548553,437.918457 134.893555,453.019745 
	C135.293304,457.508118 136.604523,460.313141 142.057022,460.464905 
M167.187592,128.101288 
	C168.792511,142.035797 170.176056,156.002731 172.208450,169.874603 
	C172.570221,172.343689 175.385895,175.996841 177.491882,176.316864 
	C180.932129,176.839615 183.451492,174.201126 183.041031,169.877045 
	C181.869736,157.537720 180.927902,145.176605 179.757111,132.837234 
	C179.353210,128.580368 178.659103,124.340324 177.879562,120.133003 
	C177.190186,116.412407 174.516495,115.564461 171.126846,116.012970 
	C167.711624,116.464874 166.877930,118.705841 166.993454,121.711098 
	C167.063736,123.539520 167.034714,125.371765 167.187592,128.101288 
M212.021896,386.036438 
	C215.401123,391.202240 219.288956,396.424927 226.213562,394.760223 
	C230.319168,393.773193 233.860016,390.436981 238.524734,387.634369 
	C238.271683,389.279205 238.621262,391.673706 237.615982,392.603912 
	C235.268982,394.775421 232.194427,396.138275 229.574554,398.048187 
	C228.533905,398.806793 227.916702,400.146271 227.106735,401.221252 
	C228.281342,401.810181 229.468460,402.930084 230.628540,402.902802 
	C238.756866,402.711365 245.419220,394.572662 243.865143,386.668030 
	C243.500153,384.811554 242.292877,383.035370 241.178146,381.426666 
	C236.812759,375.126740 232.329300,368.908600 227.756805,362.473022 
	C225.058548,364.836121 223.465759,367.182892 221.309738,367.953278 
	C212.343521,371.156830 209.509094,375.928619 212.021896,386.036438 
M633.056885,89.525421 
	C629.124084,87.063011 625.333130,84.312584 621.191895,82.273499 
	C619.423096,81.402550 616.923584,82.015442 614.756104,81.954079 
	C615.079895,83.775848 614.905457,85.911865 615.819580,87.361290 
	C618.722778,91.964302 621.843201,96.463737 625.260986,100.695190 
	C627.059448,102.921783 629.651917,104.507034 631.885864,106.381859 
	C634.577576,102.402458 630.400513,100.511581 629.141235,97.808670 
	C628.019104,95.399986 626.242920,93.295998 624.755371,91.057533 
	C625.152222,90.772820 625.549133,90.488106 625.945984,90.203400 
	C630.257446,92.903008 634.508240,95.708519 638.919373,98.233917 
	C640.149536,98.938202 642.623901,99.518410 643.172668,98.917755 
	C644.173889,97.821861 644.718384,95.712532 644.473511,94.182747 
	C643.635376,88.945572 642.372070,83.776443 641.270874,78.581367 
	C641.657227,78.381760 642.043579,78.182144 642.429932,77.982529 
	C643.607117,79.444946 644.898743,80.831131 645.935242,82.387253 
	C647.576477,84.851372 648.873230,87.564575 650.681885,89.887306 
	C651.335144,90.726227 653.042603,90.744232 654.269043,91.136848 
	C654.487122,89.891090 655.331665,88.235252 654.826172,87.463142 
	C649.874878,79.899437 644.698669,72.482986 639.618591,65.071709 
	C635.621521,66.519897 634.454346,68.499245 635.540649,72.469887 
	C637.251953,78.724640 638.192200,85.190338 639.648865,92.523323 
	C637.199951,91.428970 635.457214,90.650185 633.056885,89.525421 
M280.852814,337.715820 
	C278.703491,335.088287 276.554169,332.460754 274.852081,330.379944 
	C271.062378,332.723602 267.835938,334.374695 265.027924,336.562805 
	C262.719360,338.361755 260.284973,340.482574 259.000610,343.015564 
	C256.007050,348.919312 259.295593,353.550140 263.213165,357.692810 
	C269.304138,364.133759 277.778900,363.221558 282.569550,355.807587 
	C283.184052,354.856598 284.415405,353.942810 285.503601,353.725250 
	C289.138306,352.998627 289.877869,351.407013 287.766632,348.280273 
	C285.544342,344.989105 283.359436,341.672729 280.852814,337.715820 
M213.976837,391.961243 
	C213.153717,390.923126 212.303802,389.904968 211.512039,388.843475 
	C207.595215,383.592377 198.555588,382.187958 193.439331,386.113678 
	C185.573013,392.149414 185.733582,399.362885 190.216125,405.559143 
	C194.275467,411.170410 201.991257,412.732330 208.083786,409.839600 
	C213.919189,407.068939 216.197006,400.788879 213.976837,391.961243 
M246.212753,350.430511 
	C245.311996,350.854980 244.428497,351.321777 243.507736,351.697205 
	C236.280762,354.643616 232.664337,363.040100 235.817307,369.588013 
	C239.485779,377.206451 247.851456,380.223511 254.995178,376.504425 
	C261.053833,373.350281 263.509491,367.809937 261.849945,361.039001 
	C260.335999,354.862183 254.049911,350.269348 246.212753,350.430511 
M509.771973,157.038513 
	C504.735199,158.409622 499.795044,160.068558 497.428864,165.280777 
	C493.675415,173.548782 497.112244,180.337509 503.414185,185.495407 
	C507.858521,189.132904 513.200562,189.967133 518.675537,186.721725 
	C523.232544,184.020493 526.625549,180.388809 526.889893,175.077194 
	C527.343445,165.962708 519.982971,158.124512 509.771973,157.038513 
M818.941467,181.133728 
	C815.673462,181.896027 812.152039,182.126190 809.192017,183.535416 
	C803.645264,186.176208 801.328735,191.140259 802.026733,196.994308 
	C802.786438,203.367004 808.314148,210.306061 813.799866,211.773407 
	C819.183960,213.213577 826.651855,210.683014 829.820984,206.344559 
	C836.393921,197.346176 831.548401,185.382248 818.941467,181.133728 
M169.661224,427.850037 
	C172.330582,429.183136 175.030853,430.458344 177.661804,431.863342 
	C181.264236,433.787140 183.899628,433.093781 185.865891,429.390167 
	C187.844193,425.663879 186.204224,423.520721 183.007416,421.878021 
	C177.004715,418.793518 171.148621,415.334198 164.899750,412.873260 
	C163.050186,412.144897 159.314987,413.549469 157.829315,415.213501 
	C155.902557,417.371582 156.350189,420.723480 159.278900,422.499908 
	C162.387314,424.385406 165.749329,425.852814 169.661224,427.850037 
M204.526459,129.793640 
	C203.912735,129.542725 203.284683,129.321747 202.687592,129.036072 
	C198.482132,127.024025 195.112946,127.862663 193.493408,132.370377 
	C192.050156,136.387329 195.067902,137.798553 198.105804,139.211960 
	C203.181091,141.573257 208.180634,144.109207 213.127243,146.731628 
	C217.344772,148.967529 222.128983,148.321014 223.438126,144.705658 
	C225.050934,140.251770 221.418396,138.629120 218.360779,136.980545 
	C214.013489,134.636612 209.607742,132.401047 204.526459,129.793640 
M520.761047,399.208344 
	C518.454712,400.337006 515.568054,400.820831 515.968506,404.533020 
	C516.310608,407.704071 517.791260,409.422272 520.852234,410.577026 
	C524.544128,411.969757 527.884583,414.265564 531.489685,415.926147 
	C534.153259,417.153015 537.019714,418.803528 539.752869,418.727081 
	C541.746033,418.671326 544.373962,416.467010 545.356628,414.529572 
	C545.937500,413.384247 544.367981,409.941315 542.903198,409.170898 
	C535.942322,405.509460 528.685242,402.411224 520.761047,399.208344 
M536.924988,163.745758 
	C539.996094,161.833862 543.067200,159.921967 545.955322,158.123962 
	C549.309265,159.958710 552.196655,162.863205 556.187134,159.069489 
	C548.102905,153.345734 540.523987,147.811066 532.705627,142.638290 
	C531.617615,141.918442 528.755127,142.392883 527.786011,143.373688 
	C526.680664,144.492310 526.144165,146.921982 526.467651,148.563751 
	C527.457642,153.588379 528.972595,158.509964 530.294800,163.468613 
	C531.297058,167.227173 532.316589,170.981094 533.328430,174.737076 
	C533.949646,174.800690 534.570923,174.864288 535.192200,174.927887 
	C535.656494,173.016541 536.284180,171.126251 536.533813,169.187271 
	C536.737488,167.605209 536.489197,165.964966 536.924988,163.745758 
M530.212036,418.116028 
	C527.244690,416.234161 524.567139,416.900238 521.999817,418.984222 
	C519.695923,420.854462 517.541748,423.037781 514.964905,424.416473 
	C509.615204,427.278748 505.670074,430.326233 507.862061,437.468781 
	C508.899139,440.847992 510.252258,442.250305 513.109802,440.198639 
	C518.737549,436.158020 524.229065,431.926331 529.744141,427.730591 
	C533.229797,425.078857 534.214294,422.054321 530.212036,418.116028 
M170.679306,431.433167 
	C166.082520,430.026550 162.700775,432.290802 159.417786,435.055450 
	C157.016968,437.077118 154.732437,439.527985 151.940231,440.717987 
	C148.657059,442.117218 147.647186,444.166687 148.035019,447.275909 
	C148.352020,449.817108 148.957428,452.322296 149.703934,456.263458 
	C157.861603,450.190063 165.204041,444.980377 172.230408,439.374542 
	C175.329437,436.902039 174.138214,434.091827 170.679306,431.433167 
M193.999039,152.502274 
	C192.658401,153.471954 191.343185,154.479263 189.972733,155.404800 
	C183.916412,159.494980 183.192108,163.094986 187.799469,170.887421 
	C194.968552,165.640503 202.247986,160.676727 208.967636,155.045059 
	C210.119354,154.079803 209.682877,149.718521 208.476120,147.955460 
	C207.638947,146.732407 203.963318,146.530533 202.021225,147.207474 
	C199.297256,148.156906 197.005630,150.346680 193.999039,152.502274 
M837.886108,191.939545 
	C839.310974,192.305634 840.754089,193.019623 842.155823,192.945908 
	C843.750671,192.862045 845.308655,192.074707 846.882629,191.593155 
	C845.666016,190.692810 844.567932,189.506897 843.211243,188.944214 
	C838.637390,187.047165 835.402588,183.969543 834.230347,179.112839 
	C833.219849,174.926132 833.931702,170.888092 837.953735,168.752762 
	C840.457764,167.423386 843.612671,167.320023 846.637573,166.629425 
	C847.068542,162.210007 845.795776,160.667465 841.351501,162.195160 
	C830.793274,165.824509 825.402344,173.229248 831.283997,184.321381 
	C832.717285,187.024521 835.221008,189.160065 837.886108,191.939545 
M542.543762,387.933746 
	C539.261780,383.500122 535.979797,379.066498 532.773193,374.734680 
	C529.038757,376.738434 528.342651,378.409058 530.450195,381.172882 
	C534.558899,386.560883 538.400269,392.152374 542.364746,397.650696 
	C544.703003,400.893677 547.065002,404.119568 549.343140,407.252533 
	C553.124207,405.164703 553.539551,403.404785 551.490662,400.724152 
	C548.479614,396.784790 545.809204,392.585083 542.543762,387.933746 
M784.494080,216.989838 
	C787.838867,221.656021 791.183655,226.322205 794.766235,231.320053 
	C800.583801,226.927612 805.972900,222.858719 811.361938,218.789825 
	C811.063232,218.201202 810.764465,217.612564 810.465698,217.023926 
	C808.758545,217.474762 806.921997,217.666794 805.376221,218.440186 
	C803.320862,219.468491 801.346008,220.778717 799.597290,222.272934 
	C796.206604,225.170242 794.566345,223.402435 792.633484,220.403763 
	C789.008545,214.779861 785.012512,209.395081 781.200134,203.952728 
	C777.742737,206.056305 777.362915,207.850388 779.754822,210.346771 
	C781.455933,212.122192 782.701843,214.333664 784.494080,216.989838 
M179.549149,405.947540 
	C182.316177,409.865784 184.903442,413.933044 187.956085,417.614441 
	C188.914322,418.770081 191.123810,418.888153 192.760574,419.481171 
	C192.681793,417.712463 193.253098,415.516815 192.417816,414.244904 
	C187.336884,406.508148 182.065033,398.884796 176.516617,391.478546 
	C175.571213,390.216583 172.983414,390.185028 171.154373,389.585022 
	C171.285355,391.359894 170.838959,393.482819 171.658585,394.842590 
	C173.871307,398.513580 176.623077,401.859711 179.549149,405.947540 
M229.864258,133.988068 
	C229.862137,132.996811 230.260300,131.730865 229.797150,131.056015 
	C224.005402,122.617004 218.152466,114.216888 212.091324,105.971382 
	C211.570389,105.262733 209.350220,105.406212 208.137451,105.809540 
	C207.688110,105.958984 207.329590,108.358231 207.841110,109.116844 
	C213.474686,117.471558 219.207916,125.763863 225.169586,133.885574 
	C225.807434,134.754547 228.061646,134.437057 229.864258,133.988068 
M281.655975,325.268768 
	C281.506134,327.302979 280.511688,329.830994 281.359802,331.281769 
	C284.271545,336.262329 287.691345,340.972260 291.237213,345.536987 
	C292.114929,346.666931 294.199951,346.859009 295.730011,347.482178 
	C295.946136,345.669739 296.964996,343.393860 296.234222,342.128082 
	C293.597107,337.560425 290.508484,333.227570 287.297607,329.030060 
	C286.062592,327.415497 284.042664,326.401367 281.655975,325.268768 
M644.463806,313.091431 
	C643.107727,312.775085 641.751648,312.458771 640.395569,312.142456 
	C640.260803,313.921295 639.364502,316.174194 640.124939,317.395721 
	C643.184448,322.310394 646.663086,326.976837 650.170654,331.595428 
	C652.590759,334.782227 654.947693,334.731445 656.825562,331.010803 
	C652.745300,325.111877 648.795837,319.402100 644.463806,313.091431 
M322.833466,53.667599 
	C324.460938,55.941349 325.832855,58.478394 327.807129,60.394871 
	C329.090576,61.640728 331.251526,61.982578 333.019348,62.729446 
	C332.911041,60.943104 333.395721,58.803596 332.582031,57.437328 
	C330.235382,53.497025 327.387695,49.852196 324.689240,46.125748 
	C323.632416,44.666332 322.693359,42.892597 321.244171,42.020981 
	C320.141571,41.357841 318.317841,41.893684 316.814972,41.896080 
	C316.982147,43.197308 316.781189,44.712963 317.389465,45.757271 
	C318.874817,48.307320 320.734650,50.639233 322.833466,53.667599 
M553.533264,140.900986 
	C551.591431,138.017685 549.786621,135.024246 547.616150,132.324783 
	C547.038574,131.606445 545.339844,131.789627 544.155823,131.558914 
	C544.002869,132.730057 543.290894,134.273697 543.784241,135.014160 
	C548.280518,141.762314 552.918457,148.420731 557.717651,154.956573 
	C558.320251,155.777313 560.096252,155.736420 561.328613,156.094742 
	C561.404968,154.711166 562.054688,152.971695 561.455933,152.007278 
	C559.188049,148.354248 556.515564,144.952438 553.533264,140.900986 
M504.163330,400.088165 
	C506.940063,404.601471 511.977936,405.713562 513.792542,401.997162 
	C514.648804,400.243591 514.808960,397.182343 513.804810,395.753662 
	C512.747375,394.249115 509.348145,392.810760 508.012085,393.465546 
	C506.175964,394.365417 505.317749,397.260681 504.163330,400.088165 
M153.296356,407.230896 
	C149.407013,405.553009 146.185226,406.404907 145.258423,410.640320 
	C144.877014,412.383392 146.217331,415.855652 147.540543,416.309906 
	C149.651505,417.034637 153.148849,416.734863 154.710388,415.348358 
	C157.127853,413.201843 156.691101,409.974091 153.296356,407.230896 
M182.999603,131.425201 
	C185.420807,131.663864 188.123077,132.650146 190.165817,131.882126 
	C191.561005,131.357559 192.953766,128.223068 192.659607,126.552727 
	C192.374557,124.934090 190.163925,123.085327 188.391068,122.412445 
	C184.271545,120.848877 181.548981,124.863411 182.999603,131.425201 
M637.477600,309.981750 
	C637.987549,308.514343 638.939819,307.002319 638.798645,305.600525 
	C638.738647,305.005737 636.319397,304.171021 635.097168,304.341217 
	C634.300293,304.452148 632.946777,306.731750 633.193604,307.078674 
	C634.137268,308.404938 635.628113,309.341888 637.477600,309.981750 
M570.705872,144.915329 
	C568.214722,143.744370 566.248901,144.328522 566.226746,147.188339 
	C566.217834,148.337021 568.257263,150.602417 568.988647,150.457901 
	C571.606445,149.940704 572.790466,148.060410 570.705872,144.915329 
M311.215179,37.164997 
	C312.722717,37.598705 314.222046,38.234810 315.744629,38.296413 
	C316.051453,38.308830 316.857330,36.067661 316.663116,35.006435 
	C316.522736,34.239262 314.652496,32.993229 314.341248,33.192249 
	C313.082550,33.997154 312.128967,35.279118 311.215179,37.164997 
M279.350098,321.961395 
	C278.518616,320.413544 277.687103,318.865723 276.855621,317.317871 
	C276.009705,318.365295 275.163757,319.412720 274.317810,320.460144 
	C275.815369,321.127747 277.312927,321.795349 279.350098,321.961395 
z"/>
<path fill="#F1F1F1" opacity="1.000000" stroke="none" 
	d="
M1.000001,265.428467 
	C5.035273,267.488129 9.070544,269.976257 14.065030,273.055817 
	C13.041968,267.278442 12.196326,262.397858 11.306238,257.525360 
	C10.919804,255.409958 9.928414,253.255478 10.149484,251.220612 
	C10.372080,249.171661 11.758541,247.249146 12.635027,245.271240 
	C14.217555,246.442047 16.166153,247.333466 17.313282,248.836563 
	C20.620977,253.170624 23.628304,257.735779 26.703001,262.244690 
	C27.633945,263.609863 28.705084,265.000916 29.142332,266.541779 
	C29.475319,267.715210 28.907833,269.144196 28.740963,270.459473 
	C27.660091,269.923645 26.255035,269.652649 25.559895,268.801727 
	C23.572250,266.368622 21.908827,263.673615 20.045135,261.135040 
	C19.105543,259.855194 18.008413,258.691010 15.939564,257.913452 
	C16.751738,262.165558 17.830950,266.390289 18.271439,270.680542 
	C18.517986,273.081848 17.705687,275.591858 17.370489,278.052887 
	C15.343298,277.417297 13.214641,276.996613 11.311518,276.098206 
	C8.047734,274.557495 4.924882,272.718262 1.371432,271.002167 
	C1.000000,269.285645 1.000000,267.571289 1.000001,265.428467 
z"/>
<path fill="#F1F1F1" opacity="1.000000" stroke="none" 
	d="
M797.400024,463.000000 
	C796.012207,458.007874 794.983459,453.023224 794.067871,448.017883 
	C793.863281,446.899597 793.719055,445.559601 794.149170,444.588379 
	C794.704712,443.334015 795.685791,441.995148 796.846069,441.403992 
	C797.376404,441.133728 799.079041,442.346405 799.727844,443.258118 
	C804.205933,449.550476 808.546143,455.940887 812.965332,462.649902 
	C811.285645,463.000000 809.571289,463.000000 807.394226,462.650421 
	C805.038330,459.595093 803.145203,456.889343 801.252014,454.183594 
	C800.967346,454.316467 800.682617,454.449341 800.397949,454.582245 
	C800.598633,457.388153 800.799316,460.194092 801.000000,463.000000 
	C799.933289,463.000000 798.866638,463.000000 797.400024,463.000000 
z"/>
<path fill="#F1F1F1" opacity="1.000000" stroke="none" 
	d="
M23.571537,1.000000 
	C22.448706,8.493693 11.447274,14.612116 4.576476,11.827550 
	C3.681120,11.464685 2.712563,11.282440 1.388956,11.008266 
	C1.000000,9.285642 1.000000,7.571283 1.367844,5.469393 
	C2.683008,5.724566 3.612202,6.396094 4.580697,7.005126 
	C9.499915,10.098543 16.672220,6.883004 18.000000,1.000000 
	C19.714357,1.000000 21.428717,1.000000 23.571537,1.000000 
z"/>
<path fill="#FEFEFE" opacity="1.000000" stroke="none" 
	d="
M17.529547,1.000000 
	C16.672220,6.883004 9.499915,10.098543 4.580697,7.005126 
	C3.612202,6.396094 2.683008,5.724566 1.367844,5.040930 
	C1.000000,3.695343 1.000000,2.390687 1.000000,1.000000 
	C6.352831,1.000000 11.705962,1.000000 17.529547,1.000000 
z"/>
<path fill="#F1F1F1" opacity="1.000000" stroke="none" 
	d="
M773.463196,463.000000 
	C773.373779,461.128235 773.196594,458.733582 774.308350,457.562164 
	C775.094788,456.733398 777.861267,457.065033 779.324585,457.760712 
	C781.705933,458.892822 783.744446,460.746185 785.963806,462.647583 
	C781.975464,463.000000 777.950928,463.000000 773.463196,463.000000 
z"/>
<path fill="#F1F1F1" opacity="1.000000" stroke="none" 
	d="
M1.000000,275.449982 
	C6.292996,277.725067 8.521891,283.335785 5.393449,286.748444 
	C4.175214,285.869537 2.927731,284.969543 1.340124,284.034760 
	C1.000000,281.299988 1.000000,278.599976 1.000000,275.449982 
z"/>
<path fill="#FEFEFE" opacity="1.000000" stroke="none" 
	d="
M801.428467,463.000000 
	C800.799316,460.194092 800.598633,457.388153 800.397949,454.582245 
	C800.682617,454.449341 800.967346,454.316467 801.252014,454.183594 
	C803.145203,456.889343 805.038330,459.595093 806.965759,462.650421 
	C805.285645,463.000000 803.571289,463.000000 801.428467,463.000000 
z"/>
<path fill="#0D0A1B" opacity="1.000000" stroke="none" 
	d="
M596.987366,117.187111 
	C588.304077,117.135345 579.620728,117.083588 570.077393,117.028954 
	C568.140808,117.076637 567.064209,117.127197 565.987610,117.177750 
	C536.170105,117.121696 506.352600,117.048698 476.535065,117.014954 
	C452.896271,116.988205 429.257416,117.009567 405.198669,117.009567 
	C405.198669,133.445724 405.198669,149.689697 405.198669,166.225189 
	C402.365082,166.225189 399.948181,166.225189 397.256470,166.225189 
	C397.256470,147.261276 397.256470,128.369644 397.256470,108.977135 
	C461.228027,108.977135 525.145142,108.977135 589.939392,108.979973 
	C592.214783,108.927490 593.613037,108.872177 595.473511,108.893143 
	C602.620483,108.926407 609.305115,108.883400 616.403992,108.913971 
	C618.216248,108.934074 619.614258,108.880600 621.012268,108.827133 
	C656.653992,108.881729 692.295715,108.936432 727.937439,108.990540 
	C729.738525,108.993271 731.539673,108.990891 733.608459,108.990891 
	C733.608459,189.379486 733.608459,269.417114 733.608459,350.201111 
	C696.723877,350.201111 659.833679,350.201111 622.061768,350.200226 
	C619.448059,350.265991 617.715881,350.332672 615.527161,350.301331 
	C610.052856,350.264313 605.035156,350.325317 599.593262,350.291260 
	C597.437073,350.263336 595.704956,350.330505 593.972900,350.397705 
	C592.603271,350.331085 591.233582,350.264465 589.031372,350.169067 
	C586.449341,350.206726 584.700012,350.273193 582.950623,350.339661 
	C574.128479,350.283661 565.306396,350.181702 556.484253,350.179169 
	C503.531891,350.164001 450.579529,350.171631 397.303650,350.171631 
	C397.303650,331.173096 397.303650,312.281281 397.303650,293.104858 
	C399.647644,293.104858 402.053558,293.104858 404.930237,293.104858 
	C404.930237,309.249207 404.930237,325.480469 404.930237,342.115265 
	C469.287506,342.115265 533.181274,342.115265 597.994629,342.118500 
	C604.944580,342.056671 610.974915,341.991638 617.005188,341.926575 
	C617.756531,341.988464 618.507812,342.050385 620.056030,342.117249 
	C622.903625,342.058624 624.954224,341.994965 627.455078,342.021667 
	C631.267944,342.043335 634.630554,341.974640 638.401367,342.012085 
	C640.207825,342.060852 641.606140,342.003418 643.004395,341.946014 
	C670.434937,341.946014 697.865479,341.946014 725.555786,341.946014 
	C725.555786,267.065125 725.555786,192.380081 725.555786,117.032982 
	C689.370056,117.032982 653.153870,117.032982 616.012024,117.026970 
	C609.053345,117.076340 603.020386,117.131729 596.987366,117.187111 
z"/>
<path fill="#0D0B1C" opacity="1.000000" stroke="none" 
	d="
M585.041260,245.993439 
	C585.037415,236.834091 585.098328,228.172958 585.010925,219.513321 
	C584.928162,211.315430 581.582336,207.836563 574.097778,207.906754 
	C566.811951,207.975067 561.805359,212.818344 561.773682,220.032166 
	C561.715271,233.327347 561.757019,246.622986 561.757019,260.221985 
	C557.033691,260.221985 552.615295,260.221985 547.565735,260.221985 
	C547.565735,257.076538 547.581055,253.970093 547.562927,250.863846 
	C547.498840,239.875412 547.706543,228.875366 547.253540,217.902740 
	C546.946655,210.471176 543.000366,207.582336 535.264648,207.942200 
	C528.008179,208.279770 524.109619,212.121567 524.105347,218.974869 
	C524.096863,232.619919 524.102783,246.264969 524.102783,260.216919 
	C519.426941,260.216919 515.013489,260.216919 510.287933,260.216919 
	C510.287933,239.466919 510.287933,218.742188 510.287933,197.743042 
	C514.362732,197.743042 518.473022,197.743042 522.914124,197.743042 
	C523.270874,199.322906 523.662354,201.056549 524.056702,202.803223 
	C538.487366,193.140350 550.394714,193.971008 559.349976,205.491043 
	C563.862305,200.052505 569.575806,196.944473 576.658752,196.287354 
	C589.171631,195.126495 598.428223,202.324234 598.886963,214.908752 
	C599.432068,229.863861 599.015259,244.854034 599.015259,260.179047 
	C594.517334,260.179047 590.120239,260.179047 585.041321,260.179047 
	C585.041321,255.654083 585.041321,251.073196 585.041260,245.993439 
z"/>
<path fill="#0E0B1C" opacity="1.000000" stroke="none" 
	d="
M651.208679,250.938217 
	C651.201721,240.117096 651.219666,229.784897 651.176270,219.452972 
	C651.157288,214.927353 650.318909,210.795792 645.454102,208.827667 
	C640.480835,206.815674 633.399780,207.848541 630.177429,211.691757 
	C628.842957,213.283340 628.077820,215.833939 628.049927,217.961441 
	C627.866638,231.946365 627.955444,245.934830 627.955444,260.223206 
	C623.269714,260.223206 618.844238,260.223206 614.123718,260.223206 
	C614.123718,239.411835 614.123718,218.683121 614.123718,197.711441 
	C618.359802,197.711441 622.478699,197.711441 626.808044,197.711441 
	C627.027100,199.300125 627.249451,200.912399 627.330444,201.499832 
	C633.558044,199.757751 639.792297,197.137222 646.232666,196.450333 
	C653.143433,195.713257 659.046448,199.054153 662.942322,205.678452 
	C667.524170,200.229599 672.941772,197.139175 679.727173,196.390640 
	C692.558594,194.975113 701.645630,201.168976 702.520325,214.267029 
	C703.536377,229.481186 702.757141,244.815231 702.757141,260.284119 
	C698.135742,260.284119 693.708191,260.284119 688.911377,260.284119 
	C688.911377,248.074631 688.911743,236.103546 688.910950,224.132462 
	C688.910828,222.632629 688.936401,221.131943 688.895996,219.633102 
	C688.674194,211.400070 685.373596,207.858063 677.992249,207.905197 
	C670.546631,207.952744 665.403503,212.939407 665.369507,220.371414 
	C665.313110,232.703110 665.382080,245.035355 665.388367,257.367371 
	C665.388794,258.181458 665.306030,258.995605 665.242737,260.165649 
	C660.713196,260.165649 656.323181,260.165649 651.208679,260.165649 
	C651.208679,257.266357 651.208679,254.346817 651.208679,250.938217 
z"/>
<path fill="#0E0B1C" opacity="1.000000" stroke="none" 
	d="
M432.050659,243.004272 
	C427.667755,258.418884 413.034790,262.684570 396.318817,261.123749 
	C382.350342,259.819489 372.498993,251.870453 369.657410,240.652786 
	C369.221893,238.933395 369.130219,237.126892 368.837311,235.063507 
	C373.833344,235.063507 378.438629,235.063507 383.045258,235.065460 
	C387.357452,248.204041 397.262909,253.250748 409.782410,248.658722 
	C413.785217,247.190552 416.639587,244.680634 417.236542,240.175095 
	C417.839417,235.624725 416.509613,231.633942 412.561371,229.396576 
	C408.561768,227.130142 404.069763,225.737213 399.807098,223.929520 
	C394.016174,221.473740 387.904327,219.552872 382.532806,216.381760 
	C374.437103,211.602478 370.533569,204.227005 371.906982,194.499817 
	C373.205536,185.302826 379.148071,180.037750 387.227356,177.174179 
	C398.118256,173.314102 409.149780,173.039261 419.524139,178.993561 
	C427.571716,183.612427 431.866730,190.665192 432.044250,200.276016 
	C427.019440,200.276016 422.417511,200.276016 417.885101,200.276016 
	C414.754700,188.131851 406.532776,183.547485 394.549774,187.199814 
	C389.888733,188.620438 386.760986,191.628265 386.324097,196.759521 
	C385.919128,201.516327 388.282104,204.956802 392.378937,206.718460 
	C399.990601,209.991516 407.875519,212.625229 415.518066,215.831650 
	C423.149597,219.033463 429.298218,223.884369 431.637573,233.160980 
	C431.855743,236.940292 431.953186,239.972290 432.050659,243.004272 
z"/>
<path fill="#0D0B1C" opacity="1.000000" stroke="none" 
	d="
M145.340408,245.060242 
	C149.267319,237.238144 147.534851,231.367935 140.125671,227.835205 
	C135.958649,225.848358 131.303757,224.894394 127.105789,222.960403 
	C120.969955,220.133667 114.411263,217.661057 109.168861,213.578644 
	C98.934303,205.608688 99.169456,190.682404 108.734207,182.117722 
	C119.809425,172.200516 146.675812,170.759384 157.432678,185.836212 
	C160.682648,190.391373 162.220016,195.047211 161.682434,200.343445 
	C157.241150,200.343445 152.780228,200.343445 148.358002,200.343445 
	C148.096848,200.045914 147.753403,199.832291 147.685913,199.552185 
	C144.830185,187.699448 134.114319,182.750580 122.744850,187.961426 
	C118.874916,189.735062 116.833832,192.673187 116.458809,196.813004 
	C116.091156,200.871628 117.792465,204.189590 121.287453,205.941650 
	C126.003525,208.305878 131.072449,209.954926 135.919617,212.071976 
	C141.367264,214.451309 146.988800,216.582092 152.084000,219.585587 
	C160.922729,224.795761 163.351456,233.336502 161.858231,242.881378 
	C160.518097,251.447861 154.598846,256.643066 146.659195,259.090424 
	C133.919693,263.017334 121.391174,262.895660 109.865517,255.064438 
	C102.954514,250.368698 99.273972,243.827164 99.013161,235.100601 
	C103.933502,235.100601 108.679390,235.100601 113.403526,235.100601 
	C116.540573,249.803879 133.288589,255.168091 145.340408,245.060242 
z"/>
<path fill="#0E0B1C" opacity="1.000000" stroke="none" 
	d="
M304.756470,241.999435 
	C304.756531,227.031540 304.756531,212.563660 304.756531,197.784119 
	C309.141907,197.784119 313.216461,197.784119 317.583588,197.784119 
	C317.805603,199.349075 318.030579,200.934921 318.167877,201.902649 
	C322.733795,200.158951 327.283569,197.664597 332.134430,196.725861 
	C342.353149,194.748337 351.927551,200.147614 356.076324,209.644867 
	C361.021118,220.964218 361.243530,232.711029 357.583466,244.303238 
	C352.012756,261.946899 333.078827,266.512207 318.905762,255.405670 
	C318.905762,260.642120 318.905762,265.361633 318.905762,270.081146 
	C318.905762,274.740387 318.905762,279.399597 318.905762,284.456879 
	C314.336884,284.456879 309.936279,284.456879 304.756409,284.456879 
	C304.756409,270.619995 304.756409,256.559723 304.756470,241.999435 
M344.913391,219.973206 
	C343.905151,217.705399 343.170807,215.259338 341.833923,213.205460 
	C338.671051,208.346207 332.399841,206.627396 326.307861,208.628372 
	C320.628784,210.493729 318.899902,213.120468 318.897827,219.902954 
	C318.895752,226.729401 318.733734,233.562408 319.004456,240.378143 
	C319.081879,242.326965 319.957794,244.645157 321.257416,246.077118 
	C328.029358,253.538666 340.972748,250.883682 343.639618,240.927734 
	C345.348267,234.549194 344.647339,227.525223 344.913391,219.973206 
z"/>
<path fill="#0E0B1C" opacity="1.000000" stroke="none" 
	d="
M240.273254,233.500763 
	C245.549332,224.808502 253.879684,222.843658 262.704529,222.147217 
	C266.980072,221.809799 271.304321,222.088928 275.565704,222.088928 
	C276.083405,213.140778 273.685822,208.732239 267.884216,207.346375 
	C261.244354,205.760269 256.030670,208.549896 253.215546,215.299179 
	C252.293564,215.368057 251.306381,215.497498 250.318222,215.505447 
	C246.997238,215.532166 243.675903,215.515610 240.393127,215.515610 
	C239.555542,209.128128 243.513428,202.779556 251.274231,199.394531 
	C258.887177,196.074020 266.923401,194.960434 275.105133,197.719193 
	C285.067383,201.078369 289.705200,207.241241 289.924011,217.745163 
	C290.045471,223.574371 289.814575,229.411972 289.981140,235.238953 
	C290.216431,243.471909 290.672546,251.698532 291.059753,260.508118 
	C287.759430,260.508118 283.588684,260.955811 279.606567,260.284576 
	C278.045135,260.021393 276.906281,257.251160 275.548187,255.589874 
	C264.550140,262.832642 253.481522,263.489349 245.512314,257.172943 
	C238.257141,251.422501 236.503494,243.887451 240.273254,233.500763 
M255.602509,248.036545 
	C261.044739,251.304977 266.249115,250.557877 271.448486,247.316345 
	C278.032898,243.211349 275.385620,236.960403 275.785126,230.497482 
	C270.458801,230.934326 265.564789,231.179855 260.712952,231.771378 
	C253.993668,232.590530 249.137573,240.330643 255.602509,248.036545 
z"/>
<path fill="#0E0C1D" opacity="1.000000" stroke="none" 
	d="
M224.805084,210.421219 
	C224.889191,227.223083 224.889191,243.623322 224.889191,260.280701 
	C221.015518,260.280701 216.604828,260.280701 211.706772,260.280701 
	C211.706772,252.309204 211.711411,244.526947 211.705261,236.744705 
	C211.700653,230.920212 211.828217,225.090790 211.631210,219.272552 
	C211.408005,212.679642 209.041519,209.293259 204.348389,208.176697 
	C198.384369,206.757767 191.849243,209.072647 189.046951,213.942703 
	C188.207748,215.401154 187.976562,217.376511 187.965820,219.118134 
	C187.881729,232.734756 187.919250,246.352142 187.919250,260.248230 
	C183.136169,260.248230 178.715759,260.248230 174.028534,260.248230 
	C174.028534,239.447311 174.028534,218.726883 174.028534,197.733322 
	C178.242279,197.733322 182.333069,197.733322 186.740906,197.733322 
	C186.990723,199.529755 187.249985,201.394150 187.526077,203.379562 
	C205.896286,191.858307 219.068558,194.287216 224.805084,210.421219 
z"/>
<path fill="#120F20" opacity="1.000000" stroke="none" 
	d="
M481.220947,198.909286 
	C485.864594,198.537628 490.508270,198.165970 495.437195,198.360474 
	C495.810730,199.617020 495.898926,200.307388 495.987122,200.997757 
	C495.987122,220.583725 495.987122,240.169708 495.987122,260.144440 
	C491.308990,260.144440 487.083038,260.144440 482.504395,260.144440 
	C482.251221,258.605103 481.975861,256.930908 481.689240,255.188232 
	C465.697906,267.463013 445.500549,261.786774 443.031036,240.997208 
	C443.088013,238.452332 443.076935,236.729233 443.065857,235.006134 
	C443.065826,222.680618 443.065826,210.355103 443.065826,197.358490 
	C446.297791,197.358490 448.725739,197.358490 451.944336,197.374878 
	C454.485443,197.927124 456.235901,198.463013 457.873230,199.455719 
	C457.831787,206.942459 457.903503,213.972382 457.864166,221.393250 
	C457.836517,222.856201 457.919861,223.928207 458.003235,225.000214 
	C457.969116,230.294403 457.647186,235.606430 457.974030,240.878235 
	C458.379517,247.418869 462.354767,250.283386 469.653809,249.921875 
	C476.614410,249.577133 481.404480,245.535934 481.432129,239.768936 
	C481.484528,228.827560 481.418335,217.885620 481.447144,206.130341 
	C481.402222,203.180939 481.311584,201.045105 481.220947,198.909286 
z"/>
<path fill="#F1F1F1" opacity="1.000000" stroke="none" 
	d="
M225.916046,106.193344 
	C232.418304,97.618553 239.936462,97.221375 248.748535,103.500381 
	C248.435989,100.095947 248.056076,97.710968 248.029465,95.322060 
	C247.963394,89.389000 251.417831,85.255905 257.150787,83.979057 
	C258.356384,83.710548 260.209137,83.284225 260.502686,82.473824 
	C262.652740,76.538536 265.391602,79.333931 267.497711,82.112099 
	C271.792755,87.777756 276.206573,93.451263 279.665405,99.628822 
	C284.220306,107.763908 277.002136,119.018051 267.675415,118.889236 
	C266.500977,118.873024 265.344086,117.590546 264.179077,116.894745 
	C265.098053,115.654655 265.783691,114.071777 266.988525,113.251694 
	C268.989807,111.889549 271.560333,111.324669 273.462463,109.865303 
	C276.176331,107.783150 276.166290,105.723755 273.769287,102.306595 
	C267.632874,112.376694 259.836212,113.610184 251.520187,106.371063 
	C251.520187,109.970192 252.340942,113.701866 251.287338,116.795120 
	C250.251770,119.835434 247.716965,122.738205 245.120407,124.791130 
	C240.593689,128.370087 234.582733,127.743126 229.548050,123.998840 
	C225.152206,120.729652 223.163467,114.658745 224.771454,109.359856 
	C225.060196,108.408318 225.424973,107.479851 225.916046,106.193344 
M233.834747,106.083946 
	C233.185242,106.598160 232.131149,107.003593 231.958435,107.645996 
	C231.316666,110.032768 229.801178,113.221191 230.764893,114.770882 
	C232.390503,117.384911 235.403397,119.545280 238.304230,120.841614 
	C241.178268,122.125977 244.314224,120.473152 244.889420,117.369286 
	C245.403183,114.596916 245.140854,111.166962 243.889450,108.703606 
	C242.084457,105.150551 238.596130,103.803276 233.834747,106.083946 
M269.516571,96.083153 
	C268.378754,94.262604 267.644287,91.607628 266.008667,90.817009 
	C263.552490,89.629799 260.243439,88.928261 257.724396,89.606758 
	C256.088959,90.047256 254.472977,93.198936 254.150803,95.332565 
	C253.458939,99.914589 257.292999,104.537262 261.385773,104.987175 
	C266.214264,105.517952 268.295532,103.485481 269.516571,96.083153 
z"/>
<path fill="#F1F1F1" opacity="1.000000" stroke="none" 
	d="
M313.603210,48.308861 
	C317.415558,53.759060 321.149200,58.822174 324.527710,64.112122 
	C325.205597,65.173561 324.532440,67.097870 324.482239,68.624329 
	C320.590820,68.005058 319.828369,71.547577 317.938171,73.568367 
	C312.874481,78.981979 308.871368,79.576263 302.550262,75.783394 
	C301.313568,75.041351 300.101776,74.257744 297.698761,72.756065 
	C300.934235,83.541367 298.239349,91.177315 287.777252,93.833115 
	C281.736481,95.366570 274.935577,90.830177 272.588104,85.089188 
	C270.595642,80.216362 272.373505,72.501625 276.184479,69.483505 
	C282.560669,64.433846 287.084106,64.824692 297.173737,71.651649 
	C296.526276,69.437294 296.018982,67.755875 295.543091,66.065620 
	C293.488434,58.767521 297.057983,52.861500 304.422607,51.012238 
	C305.734070,50.682926 307.432190,49.749146 307.912048,48.643303 
	C309.529388,44.916138 311.283722,45.709232 313.603210,48.308861 
M280.971313,86.796455 
	C286.962067,89.516403 292.214691,87.589500 292.921967,82.267036 
	C293.461731,78.205070 292.555359,74.599564 288.374603,72.742447 
	C284.780731,71.146034 280.965271,71.549286 279.050293,74.821968 
	C276.915497,78.470276 276.937958,82.761475 280.971313,86.796455 
M303.658997,56.917301 
	C299.518433,61.499104 300.161896,67.296127 305.516510,70.858856 
	C308.087799,72.569679 310.851440,73.013016 313.502991,70.256859 
	C316.485321,67.156906 316.864227,63.807186 315.042938,60.252457 
	C312.748169,55.773636 308.734497,55.369579 303.658997,56.917301 
z"/>
<path fill="#F0F0F0" opacity="1.000000" stroke="none" 
	d="
M503.863922,445.970642 
	C497.154083,447.941315 494.544006,445.932831 493.947021,439.643433 
	C492.498718,424.384064 490.796844,409.148315 489.131287,393.910278 
	C488.772675,390.629364 491.577789,385.994843 494.677551,386.498383 
	C496.702026,386.827209 499.512299,389.587219 499.876953,391.631622 
	C501.639618,401.513794 502.763947,411.513916 503.970917,421.489563 
	C504.703064,427.540375 505.345642,433.613770 505.664185,439.696106 
	C505.768463,441.687256 504.725677,443.738495 503.863922,445.970642 
z"/>
<path fill="#F0F0F0" opacity="1.000000" stroke="none" 
	d="
M141.705017,460.586060 
	C136.604523,460.313141 135.293304,457.508118 134.893555,453.019745 
	C133.548553,437.918457 131.808060,422.851013 130.091263,407.785156 
	C129.678925,404.166779 130.628036,401.110779 134.142426,400.302429 
	C137.410812,399.550659 140.443588,400.962646 141.091339,404.901459 
	C141.812241,409.285034 142.539429,413.679443 142.961136,418.098053 
	C144.089798,429.924500 144.785873,441.799744 146.236679,453.583801 
	C146.733536,457.619537 145.764633,459.565765 141.705017,460.586060 
z"/>
<path fill="#F0F0F0" opacity="1.000000" stroke="none" 
	d="
M167.118942,127.651794 
	C167.034714,125.371765 167.063736,123.539520 166.993454,121.711098 
	C166.877930,118.705841 167.711624,116.464874 171.126846,116.012970 
	C174.516495,115.564461 177.190186,116.412407 177.879562,120.133003 
	C178.659103,124.340324 179.353210,128.580368 179.757111,132.837234 
	C180.927902,145.176605 181.869736,157.537720 183.041031,169.877045 
	C183.451492,174.201126 180.932129,176.839615 177.491882,176.316864 
	C175.385895,175.996841 172.570221,172.343689 172.208450,169.874603 
	C170.176056,156.002731 168.792511,142.035797 167.118942,127.651794 
z"/>
<path fill="#E0DFE2" opacity="1.000000" stroke="none" 
	d="
M582.958557,350.741577 
	C584.700012,350.273193 586.449341,350.206726 588.625366,350.246002 
	C592.629578,356.011261 595.723816,362.060425 599.898682,367.238464 
	C606.083679,374.909790 604.446411,381.844391 596.778320,386.695343 
	C594.842346,387.920074 592.790833,389.202759 590.616821,389.718445 
	C589.361328,390.016266 587.754822,388.833832 586.306274,388.317596 
	C587.144714,387.094635 587.741638,385.537323 588.873047,384.719879 
	C591.076416,383.127899 593.741394,382.168030 595.917358,380.546692 
	C598.694824,378.477142 598.717102,375.931152 597.009216,374.143097 
	C594.186401,376.443268 591.726685,379.250610 588.636536,380.802277 
	C581.707214,384.281860 577.168579,379.460724 572.314087,375.129395 
	C571.999268,375.000000 572.031677,374.984222 572.031677,374.984222 
	C569.741394,369.088074 568.219849,363.152466 573.597168,358.107758 
	C575.166809,356.635223 577.496643,355.390320 579.586121,355.194458 
	C582.537048,354.917847 583.365845,353.776245 582.958557,350.741577 
M591.994690,367.736450 
	C590.129456,365.361206 588.667664,362.351654 586.264038,360.822906 
	C584.521057,359.714294 581.031555,359.725952 579.240234,360.788300 
	C577.536743,361.798553 576.282043,364.775818 576.148621,366.968384 
	C575.880493,371.377136 580.010437,375.768646 583.755859,375.981384 
	C587.943787,376.219299 590.741760,373.692047 591.994690,367.736450 
z"/>
<path fill="#F1F1F1" opacity="1.000000" stroke="none" 
	d="
M211.858780,385.675201 
	C209.509094,375.928619 212.343521,371.156830 221.309738,367.953278 
	C223.465759,367.182892 225.058548,364.836121 227.756805,362.473022 
	C232.329300,368.908600 236.812759,375.126740 241.178146,381.426666 
	C242.292877,383.035370 243.500153,384.811554 243.865143,386.668030 
	C245.419220,394.572662 238.756866,402.711365 230.628540,402.902802 
	C229.468460,402.930084 228.281342,401.810181 227.106720,401.221252 
	C227.916702,400.146271 228.533905,398.806793 229.574554,398.048187 
	C232.194427,396.138275 235.268982,394.775421 237.615982,392.603912 
	C238.621262,391.673706 238.271683,389.279205 238.524734,387.634369 
	C233.860016,390.436981 230.319168,393.773193 226.213562,394.760223 
	C219.288956,396.424927 215.401123,391.202240 211.858780,385.675201 
M232.237610,378.548798 
	C230.007858,374.762177 227.353119,371.732574 222.325470,373.396118 
	C218.273422,374.736816 216.193863,378.437042 217.234161,382.264252 
	C218.409119,386.586884 223.182663,390.443390 226.443146,389.704102 
	C230.172028,388.858643 233.094421,383.873779 232.237610,378.548798 
z"/>
<path fill="#F1F1F1" opacity="1.000000" stroke="none" 
	d="
M633.385681,89.698410 
	C635.457214,90.650185 637.199951,91.428970 639.648865,92.523323 
	C638.192200,85.190338 637.251953,78.724640 635.540649,72.469887 
	C634.454346,68.499245 635.621521,66.519897 639.618591,65.071709 
	C644.698669,72.482986 649.874878,79.899437 654.826172,87.463142 
	C655.331665,88.235252 654.487122,89.891090 654.269043,91.136848 
	C653.042603,90.744232 651.335144,90.726227 650.681885,89.887306 
	C648.873230,87.564575 647.576477,84.851372 645.935242,82.387253 
	C644.898743,80.831131 643.607117,79.444946 642.429932,77.982529 
	C642.043579,78.182144 641.657227,78.381760 641.270874,78.581367 
	C642.372070,83.776443 643.635376,88.945572 644.473511,94.182747 
	C644.718384,95.712532 644.173889,97.821861 643.172668,98.917755 
	C642.623901,99.518410 640.149536,98.938202 638.919373,98.233917 
	C634.508240,95.708519 630.257446,92.903008 625.945984,90.203400 
	C625.549133,90.488106 625.152222,90.772820 624.755371,91.057533 
	C626.242920,93.295998 628.019104,95.399986 629.141235,97.808670 
	C630.400513,100.511581 634.577576,102.402458 631.885864,106.381866 
	C629.651917,104.507034 627.059448,102.921783 625.260986,100.695190 
	C621.843201,96.463737 618.722778,91.964302 615.819580,87.361290 
	C614.905457,85.911865 615.079895,83.775848 614.756104,81.954071 
	C616.923584,82.015442 619.423096,81.402550 621.191895,82.273499 
	C625.333130,84.312584 629.124084,87.063011 633.385681,89.698410 
z"/>
<path fill="#F1F1F1" opacity="1.000000" stroke="none" 
	d="
M281.005493,338.041565 
	C283.359436,341.672729 285.544342,344.989105 287.766632,348.280273 
	C289.877869,351.407013 289.138306,352.998627 285.503601,353.725250 
	C284.415405,353.942810 283.184052,354.856598 282.569550,355.807587 
	C277.778900,363.221558 269.304138,364.133759 263.213165,357.692810 
	C259.295593,353.550140 256.007050,348.919312 259.000610,343.015564 
	C260.284973,340.482574 262.719360,338.361755 265.027924,336.562805 
	C267.835938,334.374695 271.062378,332.723602 274.852081,330.379944 
	C276.554169,332.460754 278.703491,335.088287 281.005493,338.041565 
M267.591217,354.088867 
	C270.399994,356.833008 274.053223,357.260406 276.425262,354.640350 
	C278.199554,352.680481 279.553772,348.346893 278.549835,346.349518 
	C277.169006,343.602173 273.608185,341.119507 270.539398,340.394775 
	C268.954651,340.020508 265.222137,343.377319 264.640045,345.615295 
	C264.047119,347.895020 266.129730,350.870605 267.591217,354.088867 
z"/>
<path fill="#F1F1F1" opacity="1.000000" stroke="none" 
	d="
M214.140915,392.324219 
	C216.197006,400.788879 213.919189,407.068939 208.083786,409.839600 
	C201.991257,412.732330 194.275467,411.170410 190.216125,405.559143 
	C185.733582,399.362885 185.573013,392.149414 193.439331,386.113678 
	C198.555588,382.187958 207.595215,383.592377 211.512039,388.843475 
	C212.303802,389.904968 213.153717,390.923126 214.140915,392.324219 
M204.597992,390.402191 
	C203.627487,390.266541 202.659531,390.107910 201.686020,389.999207 
	C197.414642,389.522186 194.724396,391.349854 193.700470,395.544434 
	C192.525040,400.359619 195.804016,403.324738 199.089722,405.012543 
	C200.961472,405.974060 204.948547,404.855530 206.834381,403.289948 
	C209.920181,400.728180 209.781052,396.859497 207.603973,393.390747 
	C207.003464,392.433960 206.054291,391.695984 204.597992,390.402191 
z"/>
<path fill="#F1F1F1" opacity="1.000000" stroke="none" 
	d="
M572.008179,374.984100 
	C572.519897,376.690887 572.973938,378.429626 573.534607,380.133301 
	C575.330444,385.590912 572.591675,393.602417 568.132507,395.834625 
	C560.755127,399.527710 553.373352,398.269501 549.372559,392.637085 
	C545.560974,387.271057 546.095947,379.453522 550.586121,374.903687 
	C556.727905,368.680267 561.022827,368.268372 568.360229,373.169800 
	C569.312378,373.805817 570.329651,374.344299 571.674194,374.956085 
	C572.031677,374.984222 571.999268,375.000000 572.008179,374.984100 
M567.972168,382.923126 
	C566.134338,377.605530 561.580566,374.849884 557.218262,376.431122 
	C553.054810,377.940308 552.106140,381.346252 552.652100,385.143433 
	C553.319275,389.783142 557.481140,392.540070 562.431885,391.978882 
	C567.430664,391.412231 568.290039,387.949677 567.972168,382.923126 
z"/>
<path fill="#F1F1F1" opacity="1.000000" stroke="none" 
	d="
M246.584778,350.294037 
	C254.049911,350.269348 260.335999,354.862183 261.849945,361.039001 
	C263.509491,367.809937 261.053833,373.350281 254.995178,376.504425 
	C247.851456,380.223511 239.485779,377.206451 235.817307,369.588013 
	C232.664337,363.040100 236.280762,354.643616 243.507736,351.697205 
	C244.428497,351.321777 245.311996,350.854980 246.584778,350.294037 
M241.001129,362.782654 
	C241.082779,368.510406 243.321899,371.606262 247.667221,371.999329 
	C252.222916,372.411407 255.817917,370.147308 256.773163,366.264587 
	C257.498596,363.315796 253.497986,357.304016 250.061188,356.178436 
	C246.845551,355.125275 243.065674,357.547394 241.001129,362.782654 
z"/>
<path fill="#F1F1F1" opacity="1.000000" stroke="none" 
	d="
M510.178192,157.023468 
	C519.982971,158.124512 527.343445,165.962708 526.889893,175.077194 
	C526.625549,180.388809 523.232544,184.020493 518.675537,186.721725 
	C513.200562,189.967133 507.858521,189.132904 503.414185,185.495407 
	C497.112244,180.337509 493.675415,173.548782 497.428864,165.280777 
	C499.795044,160.068558 504.735199,158.409622 510.178192,157.023468 
M502.352539,166.168533 
	C498.491180,171.625641 502.640717,180.955765 509.658234,183.345810 
	C513.972229,184.815079 519.207581,182.449020 521.114624,178.264862 
	C523.736145,172.513016 519.663879,167.110596 515.750977,163.570267 
	C512.384460,160.524368 507.297516,161.601959 502.352539,166.168533 
z"/>
<path fill="#F1F1F1" opacity="1.000000" stroke="none" 
	d="
M819.328674,181.264038 
	C831.548401,185.382248 836.393921,197.346176 829.820984,206.344559 
	C826.651855,210.683014 819.183960,213.213577 813.799866,211.773407 
	C808.314148,210.306061 802.786438,203.367004 802.026733,196.994308 
	C801.328735,191.140259 803.645264,186.176208 809.192017,183.535416 
	C812.152039,182.126190 815.673462,181.896027 819.328674,181.264038 
M825.872253,192.683975 
	C823.538086,187.443832 819.322327,184.559494 814.160400,186.263519 
	C811.353638,187.190063 808.303833,190.231186 807.266602,193.025024 
	C805.543701,197.665909 809.399719,204.036285 813.654907,206.357971 
	C818.123779,208.796249 822.362610,207.710663 825.368164,204.599167 
	C828.250732,201.614960 829.625122,197.392258 825.872253,192.683975 
z"/>
<path fill="#F1F1F1" opacity="1.000000" stroke="none" 
	d="
M169.330917,427.676422 
	C165.749329,425.852814 162.387314,424.385406 159.278900,422.499908 
	C156.350189,420.723480 155.902557,417.371582 157.829315,415.213501 
	C159.314987,413.549469 163.050186,412.144897 164.899750,412.873260 
	C171.148621,415.334198 177.004715,418.793518 183.007416,421.878021 
	C186.204224,423.520721 187.844193,425.663879 185.865891,429.390167 
	C183.899628,433.093781 181.264236,433.787140 177.661804,431.863342 
	C175.030853,430.458344 172.330582,429.183136 169.330917,427.676422 
z"/>
<path fill="#F1F1F1" opacity="1.000000" stroke="none" 
	d="
M627.004883,341.931335 
	C624.954224,341.994965 622.903625,342.058624 620.423584,342.021790 
	C619.261108,340.460815 618.487854,339.018921 617.802551,337.536377 
	C615.462219,332.473816 618.039429,326.028229 623.366577,323.281433 
	C626.106812,321.868530 630.180237,322.284882 630.959106,317.915558 
	C630.994263,317.718536 633.802612,317.407959 634.265076,317.989075 
	C638.876343,323.784302 643.685608,329.496582 647.563965,335.773041 
	C649.973877,339.672974 644.545715,339.284576 643.071472,341.590698 
	C641.606140,342.003418 640.207825,342.060852 638.400574,341.566162 
	C637.989624,338.708649 638.688354,336.082001 637.814758,334.176086 
	C636.627258,331.585541 634.633484,328.469147 632.245605,327.591705 
	C630.120728,326.810913 625.734802,327.979797 624.628906,329.730133 
	C623.345154,331.761780 624.331970,335.398865 624.771912,338.271973 
	C624.971497,339.575165 626.227905,340.716553 627.004883,341.931335 
z"/>
<path fill="#F1F1F1" opacity="1.000000" stroke="none" 
	d="
M204.876709,129.956421 
	C209.607742,132.401047 214.013489,134.636612 218.360779,136.980545 
	C221.418396,138.629120 225.050934,140.251770 223.438126,144.705658 
	C222.128983,148.321014 217.344772,148.967529 213.127243,146.731628 
	C208.180634,144.109207 203.181091,141.573257 198.105804,139.211960 
	C195.067902,137.798553 192.050156,136.387329 193.493408,132.370377 
	C195.112946,127.862663 198.482132,127.024025 202.687592,129.036072 
	C203.284683,129.321747 203.912735,129.542725 204.876709,129.956421 
z"/>
<path fill="#F1F1F1" opacity="1.000000" stroke="none" 
	d="
M521.147339,399.160400 
	C528.685242,402.411224 535.942322,405.509460 542.903198,409.170898 
	C544.367981,409.941315 545.937500,413.384247 545.356628,414.529572 
	C544.373962,416.467010 541.746033,418.671326 539.752869,418.727081 
	C537.019714,418.803528 534.153259,417.153015 531.489685,415.926147 
	C527.884583,414.265564 524.544128,411.969757 520.852234,410.577026 
	C517.791260,409.422272 516.310608,407.704071 515.968506,404.533020 
	C515.568054,400.820831 518.454712,400.337006 521.147339,399.160400 
z"/>
<path fill="#F1F1F1" opacity="1.000000" stroke="none" 
	d="
M536.683105,164.048141 
	C536.489197,165.964966 536.737488,167.605209 536.533813,169.187271 
	C536.284180,171.126251 535.656494,173.016541 535.192200,174.927887 
	C534.570923,174.864288 533.949646,174.800690 533.328430,174.737076 
	C532.316589,170.981094 531.297058,167.227173 530.294800,163.468613 
	C528.972595,158.509964 527.457642,153.588379 526.467651,148.563751 
	C526.144165,146.921982 526.680664,144.492310 527.786011,143.373688 
	C528.755127,142.392883 531.617615,141.918442 532.705627,142.638290 
	C540.523987,147.811066 548.102905,153.345734 556.187134,159.069489 
	C552.196655,162.863205 549.309265,159.958710 545.955322,158.123962 
	C543.067200,159.921967 539.996094,161.833862 536.683105,164.048141 
M539.291931,157.854248 
	C540.455322,157.268494 541.618713,156.682755 543.434631,155.768509 
	C538.934143,152.675629 536.092712,150.722855 533.251221,148.770081 
	C532.787903,149.035049 532.324524,149.300003 531.861206,149.564957 
	C532.720276,153.276978 533.579346,156.988983 534.565002,161.248001 
	C536.352966,159.903198 537.502380,159.038712 539.291931,157.854248 
z"/>
<path fill="#F1F1F1" opacity="1.000000" stroke="none" 
	d="
M530.536621,418.326935 
	C534.214294,422.054321 533.229797,425.078857 529.744141,427.730591 
	C524.229065,431.926331 518.737549,436.158020 513.109802,440.198639 
	C510.252258,442.250305 508.899139,440.847992 507.862061,437.468781 
	C505.670074,430.326233 509.615204,427.278748 514.964905,424.416473 
	C517.541748,423.037781 519.695923,420.854462 521.999817,418.984222 
	C524.567139,416.900238 527.244690,416.234161 530.536621,418.326935 
z"/>
<path fill="#F1F1F1" opacity="1.000000" stroke="none" 
	d="
M171.001099,431.662476 
	C174.138214,434.091827 175.329437,436.902039 172.230408,439.374542 
	C165.204041,444.980377 157.861603,450.190063 149.703934,456.263458 
	C148.957428,452.322296 148.352020,449.817108 148.035019,447.275909 
	C147.647186,444.166687 148.657059,442.117218 151.940231,440.717987 
	C154.732437,439.527985 157.016968,437.077118 159.417786,435.055450 
	C162.700775,432.290802 166.082520,430.026550 171.001099,431.662476 
z"/>
<path fill="#F1F1F1" opacity="1.000000" stroke="none" 
	d="
M194.264069,152.254089 
	C197.005630,150.346680 199.297256,148.156906 202.021225,147.207474 
	C203.963318,146.530533 207.638947,146.732407 208.476120,147.955460 
	C209.682877,149.718521 210.119354,154.079803 208.967636,155.045059 
	C202.247986,160.676727 194.968552,165.640503 187.799469,170.887421 
	C183.192108,163.094986 183.916412,159.494980 189.972733,155.404800 
	C191.343185,154.479263 192.658401,153.471954 194.264069,152.254089 
z"/>
<path fill="#F1F1F1" opacity="1.000000" stroke="none" 
	d="
M565.929199,117.575134 
	C567.064209,117.127197 568.140808,117.076637 569.615112,117.105423 
	C568.034485,123.219307 570.580872,127.850197 574.154480,132.539429 
	C576.853210,136.080582 580.561707,137.216660 583.680969,135.603104 
	C586.427856,134.182159 588.208618,130.529938 589.902649,127.569366 
	C590.970093,125.703812 591.092712,123.297646 591.887390,120.150879 
	C596.457275,126.813965 594.359619,134.149841 588.026001,137.982971 
	C581.971436,141.647186 577.456970,141.282684 571.369141,136.637985 
	C565.628296,132.258026 563.681519,125.649467 565.929199,117.575134 
z"/>
<path fill="#F1F1F1" opacity="1.000000" stroke="none" 
	d="
M837.559326,191.748062 
	C835.221008,189.160065 832.717285,187.024521 831.283997,184.321381 
	C825.402344,173.229248 830.793274,165.824509 841.351501,162.195160 
	C845.795776,160.667465 847.068542,162.210007 846.637573,166.629425 
	C843.612671,167.320023 840.457764,167.423386 837.953735,168.752762 
	C833.931702,170.888092 833.219849,174.926132 834.230347,179.112839 
	C835.402588,183.969543 838.637390,187.047165 843.211243,188.944214 
	C844.567932,189.506897 845.666016,190.692810 846.882629,191.593140 
	C845.308655,192.074707 843.750671,192.862045 842.155823,192.945908 
	C840.754089,193.019623 839.310974,192.305634 837.559326,191.748062 
z"/>
<path fill="#F1F1F1" opacity="1.000000" stroke="none" 
	d="
M595.011230,108.816856 
	C593.613037,108.872177 592.214783,108.927490 590.402344,108.907928 
	C589.081177,98.917221 595.581360,93.540970 600.377808,92.113144 
	C610.448486,89.115303 620.244629,96.756691 621.008545,108.427139 
	C619.614258,108.880600 618.216248,108.934074 616.408447,108.523438 
	C615.608032,102.619011 611.109863,96.994049 606.531738,96.060509 
	C600.794861,94.890701 593.725525,99.341469 595.011230,108.816856 
z"/>
<path fill="#F1F1F1" opacity="1.000000" stroke="none" 
	d="
M593.970642,350.787262 
	C595.704956,350.330505 597.437073,350.263336 599.609741,350.650696 
	C600.777466,355.883270 603.005005,359.180511 608.353394,358.970215 
	C613.756531,358.757812 615.513245,355.104309 615.983765,350.399353 
	C617.715881,350.332672 619.448059,350.265991 621.604126,350.296875 
	C620.937744,355.053619 620.148926,359.660400 615.335083,362.515167 
	C610.776550,365.218506 606.087891,366.208588 601.714844,363.563324 
	C597.343506,360.919159 593.580017,357.151428 593.970642,350.787262 
z"/>
<path fill="#E0DFE2" opacity="1.000000" stroke="none" 
	d="
M480.896088,198.932571 
	C481.311584,201.045105 481.402222,203.180939 481.337708,205.674576 
	C475.008514,203.885666 471.401428,199.166199 470.190216,193.159378 
	C468.981293,187.164093 470.333954,181.125870 476.468445,178.341873 
	C480.013184,176.733185 484.370636,176.765610 488.391785,176.492035 
	C489.131348,176.441711 490.012177,178.467056 490.827820,179.534332 
	C489.507263,180.139694 488.055817,181.446808 486.888763,181.229172 
	C481.776520,180.275772 476.825378,181.941360 475.276245,185.598663 
	C473.216248,190.462036 475.468628,196.144012 480.896088,198.932571 
z"/>
<path fill="#F1F1F1" opacity="1.000000" stroke="none" 
	d="
M542.768677,388.215027 
	C545.809204,392.585083 548.479614,396.784790 551.490662,400.724152 
	C553.539551,403.404785 553.124207,405.164703 549.343140,407.252533 
	C547.065002,404.119568 544.703003,400.893677 542.364746,397.650696 
	C538.400269,392.152374 534.558899,386.560883 530.450195,381.172882 
	C528.342651,378.409058 529.038757,376.738434 532.773193,374.734680 
	C535.979797,379.066498 539.261780,383.500122 542.768677,388.215027 
z"/>
<path fill="#F1F1F1" opacity="1.000000" stroke="none" 
	d="
M784.322510,216.670166 
	C782.701843,214.333664 781.455933,212.122192 779.754822,210.346771 
	C777.362915,207.850388 777.742737,206.056305 781.200134,203.952728 
	C785.012512,209.395081 789.008545,214.779861 792.633484,220.403763 
	C794.566345,223.402435 796.206604,225.170242 799.597290,222.272934 
	C801.346008,220.778717 803.320862,219.468491 805.376221,218.440186 
	C806.921997,217.666794 808.758545,217.474762 810.465698,217.023926 
	C810.764465,217.612564 811.063232,218.201202 811.361938,218.789825 
	C805.972900,222.858719 800.583801,226.927612 794.766235,231.320053 
	C791.183655,226.322205 787.838867,221.656021 784.322510,216.670166 
z"/>
<path fill="#F1F1F1" opacity="1.000000" stroke="none" 
	d="
M179.355042,405.641113 
	C176.623077,401.859711 173.871307,398.513580 171.658585,394.842590 
	C170.838959,393.482819 171.285355,391.359894 171.154373,389.585022 
	C172.983414,390.185028 175.571213,390.216583 176.516617,391.478546 
	C182.065033,398.884796 187.336884,406.508148 192.417816,414.244904 
	C193.253098,415.516815 192.681793,417.712463 192.760590,419.481140 
	C191.123810,418.888153 188.914322,418.770081 187.956085,417.614441 
	C184.903442,413.933044 182.316177,409.865784 179.355042,405.641113 
z"/>
<path fill="#F1F1F1" opacity="1.000000" stroke="none" 
	d="
M458.430573,225.001587 
	C457.919861,223.928207 457.836517,222.856201 458.257721,221.393768 
	C464.028290,220.245255 468.790253,216.222519 468.874390,212.460922 
	C469.003479,206.690979 463.731415,200.172562 457.986359,198.998886 
	C456.235901,198.463013 454.485443,197.927124 452.372284,197.250183 
	C454.715149,192.694214 459.101746,194.681000 462.144043,195.474304 
	C470.329956,197.608841 475.090881,207.025146 472.993683,215.147446 
	C471.340393,221.550232 466.416382,224.983307 458.430573,225.001587 
z"/>
<path fill="#F1F1F1" opacity="1.000000" stroke="none" 
	d="
M229.715149,134.329010 
	C228.061646,134.437057 225.807434,134.754547 225.169586,133.885574 
	C219.207916,125.763863 213.474686,117.471558 207.841110,109.116844 
	C207.329590,108.358231 207.688110,105.958984 208.137451,105.809540 
	C209.350220,105.406212 211.570389,105.262733 212.091324,105.971382 
	C218.152466,114.216888 224.005402,122.617004 229.797150,131.056015 
	C230.260300,131.730865 229.862137,132.996811 229.715149,134.329010 
z"/>
<path fill="#F1F1F1" opacity="1.000000" stroke="none" 
	d="
M282.018188,325.191223 
	C284.042664,326.401367 286.062592,327.415497 287.297607,329.030060 
	C290.508484,333.227570 293.597107,337.560425 296.234222,342.128082 
	C296.964996,343.393860 295.946136,345.669739 295.730011,347.482178 
	C294.199951,346.859009 292.114929,346.666931 291.237213,345.536987 
	C287.691345,340.972260 284.271545,336.262329 281.359802,331.281769 
	C280.511688,329.830994 281.506134,327.302979 282.018188,325.191223 
z"/>
<path fill="#F1F1F1" opacity="1.000000" stroke="none" 
	d="
M644.655090,313.391876 
	C648.795837,319.402100 652.745300,325.111877 656.825562,331.010803 
	C654.947693,334.731445 652.590759,334.782227 650.170654,331.595428 
	C646.663086,326.976837 643.184448,322.310394 640.124939,317.395721 
	C639.364502,316.174194 640.260803,313.921295 640.395569,312.142456 
	C641.751648,312.458771 643.107727,312.775085 644.655090,313.391876 
z"/>
<path fill="#F1F1F1" opacity="1.000000" stroke="none" 
	d="
M322.638611,53.363285 
	C320.734650,50.639233 318.874817,48.307320 317.389465,45.757271 
	C316.781189,44.712963 316.982147,43.197308 316.814972,41.896080 
	C318.317841,41.893684 320.141571,41.357841 321.244171,42.020981 
	C322.693359,42.892597 323.632416,44.666332 324.689240,46.125748 
	C327.387695,49.852196 330.235382,53.497025 332.582031,57.437328 
	C333.395721,58.803596 332.911041,60.943104 333.019348,62.729446 
	C331.251526,61.982578 329.090576,61.640728 327.807129,60.394871 
	C325.832855,58.478394 324.460938,55.941349 322.638611,53.363285 
z"/>
<path fill="#F1F1F1" opacity="1.000000" stroke="none" 
	d="
M553.763855,141.178818 
	C556.515564,144.952438 559.188049,148.354248 561.455933,152.007278 
	C562.054688,152.971695 561.404968,154.711166 561.328613,156.094742 
	C560.096252,155.736420 558.320251,155.777313 557.717651,154.956573 
	C552.918457,148.420731 548.280518,141.762314 543.784241,135.014160 
	C543.290894,134.273697 544.002869,132.730057 544.155823,131.558914 
	C545.339844,131.789627 547.038574,131.606445 547.616150,132.324783 
	C549.786621,135.024246 551.591431,138.017685 553.763855,141.178818 
z"/>
<path fill="#E4E4E5" opacity="1.000000" stroke="none" 
	d="
M496.355408,200.985992 
	C495.898926,200.307388 495.810730,199.617020 495.817383,198.586746 
	C495.940491,196.762268 496.284698,195.196564 495.928741,193.810669 
	C495.264374,191.224106 494.171967,188.866302 490.868164,191.414795 
	C490.098846,192.008240 489.110504,192.697235 488.238617,192.676758 
	C487.269318,192.653976 486.123566,192.050537 485.454163,191.329163 
	C485.185608,191.039703 485.737640,189.435730 486.334259,188.991135 
	C489.089020,186.938293 491.991089,185.083069 494.805359,183.180679 
	C503.422821,192.235947 504.779846,195.950180 496.355408,200.985992 
z"/>
<path fill="#F1F1F1" opacity="1.000000" stroke="none" 
	d="
M504.101929,399.694580 
	C505.317749,397.260681 506.175964,394.365417 508.012085,393.465546 
	C509.348145,392.810760 512.747375,394.249115 513.804810,395.753662 
	C514.808960,397.182343 514.648804,400.243591 513.792542,401.997162 
	C511.977936,405.713562 506.940063,404.601471 504.101929,399.694580 
z"/>
<path fill="#F1F1F1" opacity="1.000000" stroke="none" 
	d="
M153.630264,407.420593 
	C156.691101,409.974091 157.127853,413.201843 154.710388,415.348358 
	C153.148849,416.734863 149.651505,417.034637 147.540543,416.309906 
	C146.217331,415.855652 144.877014,412.383392 145.258423,410.640320 
	C146.185226,406.404907 149.407013,405.553009 153.630264,407.420593 
z"/>
<path fill="#F1F1F1" opacity="1.000000" stroke="none" 
	d="
M182.751282,131.102158 
	C181.548981,124.863411 184.271545,120.848877 188.391068,122.412445 
	C190.163925,123.085327 192.374557,124.934090 192.659607,126.552727 
	C192.953766,128.223068 191.561005,131.357559 190.165817,131.882126 
	C188.123077,132.650146 185.420807,131.663864 182.751282,131.102158 
z"/>
<path fill="#F1F1F1" opacity="1.000000" stroke="none" 
	d="
M597.036743,117.531952 
	C603.020386,117.131729 609.053345,117.076340 615.549438,117.101318 
	C612.285522,124.331711 602.274536,124.699387 597.036743,117.531952 
z"/>
<path fill="#F0F0F0" opacity="1.000000" stroke="none" 
	d="
M442.696808,235.038391 
	C443.076935,236.729233 443.088013,238.452332 442.967712,240.593842 
	C439.483398,241.700195 436.130524,242.388123 432.414124,243.040161 
	C431.953186,239.972290 431.855743,236.940292 431.832306,233.458496 
	C435.035706,235.436859 438.033630,238.529388 442.696808,235.038391 
z"/>
<path fill="#F1F1F1" opacity="1.000000" stroke="none" 
	d="
M616.946472,341.582886 
	C610.974915,341.991638 604.944580,342.056671 598.454590,342.023865 
	C602.879395,335.137634 610.096924,334.875244 616.946472,341.582886 
z"/>
<path fill="#F1F1F1" opacity="1.000000" stroke="none" 
	d="
M637.196167,310.202972 
	C635.628113,309.341888 634.137268,308.404938 633.193604,307.078674 
	C632.946777,306.731750 634.300293,304.452148 635.097168,304.341217 
	C636.319397,304.171021 638.738647,305.005737 638.798645,305.600525 
	C638.939819,307.002319 637.987549,308.514343 637.196167,310.202972 
z"/>
<path fill="#F1F1F1" opacity="1.000000" stroke="none" 
	d="
M571.016785,145.118134 
	C572.790466,148.060410 571.606445,149.940704 568.988647,150.457901 
	C568.257263,150.602417 566.217834,148.337021 566.226746,147.188339 
	C566.248901,144.328522 568.214722,143.744370 571.016785,145.118134 
z"/>
<path fill="#F1F1F1" opacity="1.000000" stroke="none" 
	d="
M311.138977,36.775002 
	C312.128967,35.279118 313.082550,33.997154 314.341248,33.192249 
	C314.652496,32.993229 316.522736,34.239262 316.663116,35.006435 
	C316.857330,36.067661 316.051453,38.308830 315.744629,38.296413 
	C314.222046,38.234810 312.722717,37.598705 311.138977,36.775002 
z"/>
<path fill="#F1F1F1" opacity="1.000000" stroke="none" 
	d="
M279.080292,322.212158 
	C277.312927,321.795349 275.815369,321.127747 274.317810,320.460144 
	C275.163757,319.412720 276.009705,318.365295 276.855621,317.317871 
	C277.687103,318.865723 278.518616,320.413544 279.080292,322.212158 
z"/>
<path fill="#FEFEFE" opacity="1.000000" stroke="none" 
	d="
M595.473511,108.893143 
	C593.725525,99.341469 600.794861,94.890701 606.531738,96.060509 
	C611.109863,96.994049 615.608032,102.619011 615.994141,108.449860 
	C609.305115,108.883400 602.620483,108.926407 595.473511,108.893143 
z"/>
<path fill="#FEFEFE" opacity="1.000000" stroke="none" 
	d="
M627.455078,342.021667 
	C626.227905,340.716553 624.971497,339.575165 624.771912,338.271973 
	C624.331970,335.398865 623.345154,331.761780 624.628906,329.730133 
	C625.734802,327.979797 630.120728,326.810913 632.245605,327.591705 
	C634.633484,328.469147 636.627258,331.585541 637.814758,334.176086 
	C638.688354,336.082001 637.989624,338.708649 637.992371,341.460022 
	C634.630554,341.974640 631.267944,342.043335 627.455078,342.021667 
z"/>
<path fill="#FEFEFE" opacity="1.000000" stroke="none" 
	d="
M615.527161,350.301331 
	C615.513245,355.104309 613.756531,358.757812 608.353394,358.970215 
	C603.005005,359.180511 600.777466,355.883270 600.033875,350.745758 
	C605.035156,350.325317 610.052856,350.264313 615.527161,350.301331 
z"/>
<path fill="#FCFCFD" opacity="1.000000" stroke="none" 
	d="
M344.969971,220.381897 
	C344.647339,227.525223 345.348267,234.549194 343.639618,240.927734 
	C340.972748,250.883682 328.029358,253.538666 321.257416,246.077118 
	C319.957794,244.645157 319.081879,242.326965 319.004456,240.378143 
	C318.733734,233.562408 318.895752,226.729401 318.897827,219.902954 
	C318.899902,213.120468 320.628784,210.493729 326.307861,208.628372 
	C332.399841,206.627396 338.671051,208.346207 341.833923,213.205460 
	C343.170807,215.259338 343.905151,217.705399 344.969971,220.381897 
z"/>
<path fill="#F8F8F8" opacity="1.000000" stroke="none" 
	d="
M255.292664,247.800858 
	C249.137573,240.330643 253.993668,232.590530 260.712952,231.771378 
	C265.564789,231.179855 270.458801,230.934326 275.785126,230.497482 
	C275.385620,236.960403 278.032898,243.211349 271.448486,247.316345 
	C266.249115,250.557877 261.044739,251.304977 255.292664,247.800858 
z"/>
<path fill="#FEFEFE" opacity="1.000000" stroke="none" 
	d="
M457.873230,199.455719 
	C463.731415,200.172562 469.003479,206.690979 468.874390,212.460922 
	C468.790253,216.222519 464.028290,220.245255 458.368744,221.002823 
	C457.903503,213.972382 457.831787,206.942459 457.873230,199.455719 
z"/>
<path fill="#FEFEFE" opacity="1.000000" stroke="none" 
	d="
M234.193207,105.918533 
	C238.596130,103.803276 242.084457,105.150551 243.889450,108.703606 
	C245.140854,111.166962 245.403183,114.596916 244.889420,117.369286 
	C244.314224,120.473152 241.178268,122.125977 238.304230,120.841614 
	C235.403397,119.545280 232.390503,117.384911 230.764893,114.770882 
	C229.801178,113.221191 231.316666,110.032768 231.958435,107.645996 
	C232.131149,107.003593 233.185242,106.598160 234.193207,105.918533 
z"/>
<path fill="#FEFEFE" opacity="1.000000" stroke="none" 
	d="
M269.654968,96.429977 
	C268.295532,103.485481 266.214264,105.517952 261.385773,104.987175 
	C257.292999,104.537262 253.458939,99.914589 254.150803,95.332565 
	C254.472977,93.198936 256.088959,90.047256 257.724396,89.606758 
	C260.243439,88.928261 263.552490,89.629799 266.008667,90.817009 
	C267.644287,91.607628 268.378754,94.262604 269.654968,96.429977 
z"/>
<path fill="#FEFEFE" opacity="1.000000" stroke="none" 
	d="
M280.738037,86.465729 
	C276.937958,82.761475 276.915497,78.470276 279.050293,74.821968 
	C280.965271,71.549286 284.780731,71.146034 288.374603,72.742447 
	C292.555359,74.599564 293.461731,78.205070 292.921967,82.267036 
	C292.214691,87.589500 286.962067,89.516403 280.738037,86.465729 
z"/>
<path fill="#FEFEFE" opacity="1.000000" stroke="none" 
	d="
M303.991974,56.679722 
	C308.734497,55.369579 312.748169,55.773636 315.042938,60.252457 
	C316.864227,63.807186 316.485321,67.156906 313.502991,70.256859 
	C310.851440,73.013016 308.087799,72.569679 305.516510,70.858856 
	C300.161896,67.296127 299.518433,61.499104 303.991974,56.679722 
z"/>
<path fill="#FEFEFE" opacity="1.000000" stroke="none" 
	d="
M592.005981,368.127869 
	C590.741760,373.692047 587.943787,376.219299 583.755859,375.981384 
	C580.010437,375.768646 575.880493,371.377136 576.148621,366.968384 
	C576.282043,364.775818 577.536743,361.798553 579.240234,360.788300 
	C581.031555,359.725952 584.521057,359.714294 586.264038,360.822906 
	C588.667664,362.351654 590.129456,365.361206 592.005981,368.127869 
z"/>
<path fill="#FEFEFE" opacity="1.000000" stroke="none" 
	d="
M232.408295,378.893372 
	C233.094421,383.873779 230.172028,388.858643 226.443146,389.704102 
	C223.182663,390.443390 218.409119,386.586884 217.234161,382.264252 
	C216.193863,378.437042 218.273422,374.736816 222.325470,373.396118 
	C227.353119,371.732574 230.007858,374.762177 232.408295,378.893372 
z"/>
<path fill="#FEFEFE" opacity="1.000000" stroke="none" 
	d="
M267.316040,353.815186 
	C266.129730,350.870605 264.047119,347.895020 264.640045,345.615295 
	C265.222137,343.377319 268.954651,340.020508 270.539398,340.394775 
	C273.608185,341.119507 277.169006,343.602173 278.549835,346.349518 
	C279.553772,348.346893 278.199554,352.680481 276.425262,354.640350 
	C274.053223,357.260406 270.399994,356.833008 267.316040,353.815186 
z"/>
<path fill="#FEFEFE" opacity="1.000000" stroke="none" 
	d="
M204.931549,390.629883 
	C206.054291,391.695984 207.003464,392.433960 207.603973,393.390747 
	C209.781052,396.859497 209.920181,400.728180 206.834381,403.289948 
	C204.948547,404.855530 200.961472,405.974060 199.089722,405.012543 
	C195.804016,403.324738 192.525040,400.359619 193.700470,395.544434 
	C194.724396,391.349854 197.414642,389.522186 201.686020,389.999207 
	C202.659531,390.107910 203.627487,390.266541 204.931549,390.629883 
z"/>
<path fill="#FEFEFE" opacity="1.000000" stroke="none" 
	d="
M567.983643,383.337891 
	C568.290039,387.949677 567.430664,391.412231 562.431885,391.978882 
	C557.481140,392.540070 553.319275,389.783142 552.652100,385.143433 
	C552.106140,381.346252 553.054810,377.940308 557.218262,376.431122 
	C561.580566,374.849884 566.134338,377.605530 567.983643,383.337891 
z"/>
<path fill="#FEFEFE" opacity="1.000000" stroke="none" 
	d="
M241.010696,362.377228 
	C243.065674,357.547394 246.845551,355.125275 250.061188,356.178436 
	C253.497986,357.304016 257.498596,363.315796 256.773163,366.264587 
	C255.817917,370.147308 252.222916,372.411407 247.667221,371.999329 
	C243.321899,371.606262 241.082779,368.510406 241.010696,362.377228 
z"/>
<path fill="#FEFEFE" opacity="1.000000" stroke="none" 
	d="
M502.628296,165.883270 
	C507.297516,161.601959 512.384460,160.524368 515.750977,163.570267 
	C519.663879,167.110596 523.736145,172.513016 521.114624,178.264862 
	C519.207581,182.449020 513.972229,184.815079 509.658234,183.345810 
	C502.640717,180.955765 498.491180,171.625641 502.628296,165.883270 
z"/>
<path fill="#FFFFFF" opacity="1.000000" stroke="none" 
	d="
M826.040405,193.034027 
	C829.625122,197.392258 828.250732,201.614960 825.368164,204.599167 
	C822.362610,207.710663 818.123779,208.796249 813.654907,206.357971 
	C809.399719,204.036285 805.543701,197.665909 807.266602,193.025024 
	C808.303833,190.231186 811.353638,187.190063 814.160400,186.263519 
	C819.322327,184.559494 823.538086,187.443832 826.040405,193.034027 
z"/>
<path fill="#FCFCFD" opacity="1.000000" stroke="none" 
	d="
M538.971802,158.014236 
	C537.502380,159.038712 536.352966,159.903198 534.565002,161.248001 
	C533.579346,156.988983 532.720276,153.276978 531.861206,149.564957 
	C532.324524,149.300003 532.787903,149.035049 533.251221,148.770081 
	C536.092712,150.722855 538.934143,152.675629 543.434631,155.768509 
	C541.618713,156.682755 540.455322,157.268494 538.971802,158.014236 
z"/>
</svg>